<svg width="144" height="108" viewBox="0 0 144 108" fill="none" xmlns="http://www.w3.org/2000/svg">
<path fill-rule="evenodd" clip-rule="evenodd" d="M30.4983 0L79.5829 4.29153e-06L108.925 51.9141L125.077 21.7813L113.286 7.15256e-06L139.554 9.53674e-06L127.334 21.7977L144 54L127.334 86.2023L139.554 108H113.286L125.077 86.2187L108.925 56.0859L79.5829 108H30.4983L0 54L30.4983 0ZM107.243 53L78.4083 1L56.7369 1L85.5717 53H107.243ZM83.8426 54L55.0406 2.05913L26.2387 54L55.0406 105.941L83.8426 54ZM53.3443 107L24.5095 55H2.83814L31.6729 107H53.3443ZM2.83814 53H24.5095L53.3443 1L31.6729 1L2.83814 53ZM56.7369 107L85.5717 55H107.243L78.4083 107H56.7369ZM110.072 54L126.19 84.068L141.751 54L126.19 23.932L110.072 54ZM126.221 88.353L116.57 107H136.216L126.221 88.353ZM126.221 19.647L136.216 1.00001L116.57 1.00001L126.221 19.647Z" fill="#9B7C00"/>
</svg>
