<svg width="302" height="108" viewBox="0 0 302 108" fill="none" xmlns="http://www.w3.org/2000/svg">
<g clip-path="url(#clip0_737_950)">
<path d="M-0.000160068 85.527L0.156845 83.8294C4.08198 83.1827 6.90808 81.566 8.71364 79.1408C10.1267 77.3624 10.7547 73.8055 10.7547 68.3893V26.03C10.7547 22.7965 10.5977 20.3714 10.2052 18.8354C9.89118 17.2187 9.18466 15.8444 8.16412 14.7127C6.35856 12.6109 3.68947 11.2366 0.0783427 10.6708V8.89231C1.49139 8.89231 2.19792 8.97315 2.19792 8.97315L8.55664 9.2965C10.5977 9.37734 12.8743 9.45818 15.2294 9.45818C19.4685 9.45818 24.1002 9.21567 29.0459 8.81147C33.6775 8.40728 37.0531 8.24561 39.2512 8.24561C45.0604 8.24561 50.3201 9.13483 55.0303 10.9941C59.7404 12.8534 63.8226 15.5211 67.2767 18.9163C70.7308 22.3923 73.3999 26.4342 75.284 31.2037C77.168 35.9731 78.1101 41.1468 78.1101 46.8863C78.1101 52.6258 77.168 57.8803 75.2055 62.7306C73.2429 67.5809 70.4953 71.7037 66.8842 75.0989C63.273 78.4941 58.9554 81.1618 54.0097 83.021C48.9855 84.8803 43.4118 85.7696 37.2886 85.7696C35.0121 85.7696 31.4794 85.527 26.5338 85.1228C23.0796 84.7995 19.6255 84.6378 16.3284 84.6378C13.9733 84.6378 11.4612 84.6378 8.55664 84.8803L1.17738 85.4462C0.784867 85.4462 0.313851 85.4462 -0.157166 85.4462L-0.000160068 85.527ZM7.77161 82.6977C10.9117 82.3743 13.8163 82.2127 16.3284 82.2127C18.8405 82.2127 21.3526 82.3744 23.7077 82.6169L21.5881 81.0809C20.4891 80.3534 19.7825 79.6258 19.3115 78.9791C18.919 78.3324 18.6835 77.4432 18.6835 76.3115C18.6835 75.6648 18.6835 75.0181 18.6835 74.4522V20.048C18.6835 19.4821 18.6835 18.8354 18.6835 18.1887C18.6835 17.057 18.8405 16.2486 19.233 15.6827C19.547 15.1169 20.332 14.3893 21.5881 13.4193L24.4927 11.2366C21.2741 11.56 18.5265 11.7217 16.2499 11.7217C14.0518 11.7217 11.3042 11.56 8.08562 11.3175H7.06509L9.96969 13.4193C11.1472 14.2276 11.9323 14.9552 12.3248 15.6019C12.7173 16.2486 12.8743 17.057 12.8743 18.1887C12.8743 18.5929 12.8743 18.9163 12.8743 19.1588C12.8743 19.4821 12.8743 19.7246 12.8743 19.9672V74.3714C12.8743 74.3714 12.8743 74.8564 12.8743 75.1797C12.8743 75.5031 12.8743 75.8264 12.8743 76.2306C12.8743 77.3624 12.7173 78.2516 12.4033 78.8175C12.0893 79.3833 11.3042 80.1109 9.96969 81.0001L7.85011 82.6169L7.77161 82.6977ZM23.5507 22.6348V66.045C23.4722 70.8953 23.8647 74.3714 24.7282 76.554C25.5132 78.575 26.8478 80.1109 28.8103 81.2426C30.6944 82.3744 33.0495 82.8594 35.7186 82.8594C39.8792 82.8594 43.7259 81.9701 47.2585 80.1917C50.7911 78.4133 53.8527 75.9073 56.5218 72.5929C59.1909 69.2785 61.1535 65.3983 62.5665 60.8714C63.9796 56.3444 64.6076 51.4941 64.6076 46.3205C64.6076 39.4492 63.3515 33.3055 60.918 27.8893C58.4844 22.4732 55.0303 18.1887 50.7126 15.1169C46.3165 12.045 41.4493 10.5091 36.1111 10.5091C31.8719 10.5091 28.7318 11.4791 26.6908 13.4193C24.6497 15.3594 23.6292 18.5121 23.6292 22.7157L23.5507 22.6348ZM44.5109 82.8594C48.6715 81.8893 52.2827 80.4342 55.2658 78.6558C58.2489 76.8773 61.075 74.4522 63.7441 71.4612C69.7103 64.5091 72.7719 56.2636 72.7719 46.7246C72.7719 40.9851 71.7513 35.7306 69.6318 30.7995C67.5122 25.8684 64.5291 21.7456 60.5254 18.3504C56.6003 14.9552 52.0471 12.4492 46.866 10.9941C48.8285 11.9642 50.6341 13.0959 52.3612 14.3085C54.0882 15.5211 55.5798 16.8953 56.9143 18.3504C58.2489 19.8055 59.4264 21.3414 60.3684 22.8773C64.5291 29.4252 66.6487 37.1857 66.6487 46.2396C66.6487 51.0091 66.0991 55.6169 64.9216 59.9821C63.7441 64.3474 62.0955 68.1468 59.8974 71.4612C58.0134 74.2905 55.8938 76.554 53.4602 78.3324C51.0266 80.1109 48.0435 81.6468 44.3539 83.021L44.5109 82.8594Z" fill="#CCB46B"/>
<path d="M85.5672 8.16467C85.5672 5.98204 86.3522 4.04192 87.9223 2.42515C89.4923 0.808383 91.3764 0 93.5745 0C95.7726 0 97.6566 0.808383 99.2267 2.42515C100.797 3.96108 101.582 5.9012 101.582 8.16467C101.582 10.4281 100.797 12.3683 99.2267 13.985C97.7351 15.6018 95.8511 16.4102 93.653 16.4102C91.4549 16.4102 89.5708 15.6018 88.0008 13.985C86.4307 12.3683 85.6457 10.4281 85.6457 8.08383L85.5672 8.16467ZM99.6977 30.8802V85.5269H87.4513V30.8802H99.6977Z" fill="#CCB46B"/>
<path d="M154.806 76.3116L155.67 77.9283C154.257 78.8984 152.844 79.7876 151.509 80.596C150.175 81.3235 148.84 82.0511 147.506 82.6978C144.287 84.072 141.068 85.0421 137.771 85.608C134.474 86.1738 130.785 86.4972 126.702 86.4972C125.917 86.4972 124.975 86.4972 124.112 86.4972C123.17 86.4972 122.306 86.4164 121.364 86.3355C118.303 85.9313 115.555 85.0421 112.964 83.587C110.452 82.1319 109.196 79.5451 109.196 75.7457C109.196 73.9673 109.432 71.9463 109.981 69.5211C110.531 67.1768 111.316 64.4283 112.336 61.4373C114.534 55.2128 117.91 50.2008 122.306 46.4014C126.702 42.602 132.276 40.6619 138.949 40.6619C142.403 40.6619 144.994 41.3086 146.721 42.6828C148.526 44.0571 149.39 45.9972 149.39 48.7457C149.39 49.0691 149.39 49.3116 149.39 49.6349C149.39 49.8774 149.39 50.2008 149.39 50.5241C148.84 54.4852 146.564 58.3655 142.403 62.084C138.242 65.8026 132.826 68.9553 126.153 71.5421C125.996 72.4313 125.917 73.2397 125.839 73.8056C125.76 74.3714 125.76 74.9373 125.76 75.5032V76.069C125.76 78.4942 126.545 80.4343 128.037 81.8894C129.528 83.3445 131.648 83.9912 134.317 83.9912C137.379 83.9912 140.676 83.3445 144.13 82.1319C147.584 80.8385 151.195 79.0601 154.806 76.6349V76.3116ZM126.702 68.9553C127.566 68.3086 128.665 67.2577 129.921 66.0451C131.177 64.7517 132.433 63.3774 133.768 61.7607C134.553 60.8714 135.338 59.9014 136.123 58.8505C136.829 57.7996 137.614 56.8295 138.321 55.7786C139.734 53.6768 140.911 51.6559 141.853 49.7158C142.795 47.7756 143.266 45.9972 143.266 44.6229C143.266 43.8954 143.031 43.2487 142.56 42.7637C142.089 42.2786 141.539 42.0361 140.833 42.0361C140.597 42.0361 140.44 42.0361 140.205 42.0361C140.048 42.0361 139.812 42.117 139.734 42.1978C138.085 42.9253 136.515 44.6229 135.024 47.3714C133.532 50.1199 132.119 53.111 130.863 56.3445C129.921 58.8505 129.057 61.2756 128.351 63.6199C127.644 65.9643 127.173 67.7427 126.859 69.117L126.702 68.9553Z" fill="#CCB46B"/>
<path d="M212.272 78.0095C203.793 82.3748 202.773 82.2939 193.823 85.4466C191.154 86.3359 188.328 87.5484 185.659 88.5185C182.833 94.0155 181.499 95.8748 179.536 98.2999C174.041 104.524 168.781 107.92 165.327 107.92C163.129 107.92 161.166 106.303 161.166 103.878C161.166 101.695 162.579 99.9975 164.071 98.4616C167.447 95.1472 170.194 93.773 177.887 89.4886L181.577 79.9496C180.557 80.5963 179.693 81.3239 178.672 82.0514C174.669 84.5574 170.43 86.1742 165.641 86.1742C162.658 86.1742 160.146 85.5275 157.791 83.264C156.378 81.8898 154.808 79.788 154.808 75.3418C154.808 74.2101 154.808 72.4317 155.593 69.6832C157.241 63.0544 161.402 55.4556 165.641 50.1203C166.897 48.5035 174.355 39.0454 184.168 39.0454C189.663 39.0454 193.195 41.7131 194.923 42.8448C196.493 42.1981 197.906 41.4706 199.397 40.5814C199.711 40.5005 202.066 38.9646 202.38 38.9646C202.694 39.0454 202.694 39.288 202.694 39.5305C202.694 39.773 201.988 41.4706 201.909 41.7131C201.595 42.764 201.124 43.8149 200.653 44.9466C199.397 48.1802 198.22 51.4945 197.042 54.8089C193.274 65.2371 189.663 75.8269 186.209 86.3359C188.564 85.5275 190.919 84.6383 193.352 83.8299C202.694 80.758 203.401 80.5963 212.115 76.1502V77.8478L212.272 78.0095ZM193.745 45.5125C192.724 44.2191 189.741 40.3388 184.56 40.3388C179.379 40.3388 175.611 44.7041 174.747 45.755C173.334 47.3718 170.508 51.252 167.918 56.6682C165.484 62.0844 162.108 71.7041 162.108 77.9287C162.108 84.1532 166.348 85.0424 168.546 85.0424C170.194 85.0424 172 84.3149 172.471 84.2341C176.239 82.779 179.3 79.9496 182.284 77.3628C183.932 73.0784 185.502 68.7131 187.072 64.3478L193.666 45.5125H193.745ZM165.091 99.3508C165.091 99.3508 162.187 101.776 162.187 104.201C162.187 105.09 162.736 107.111 165.405 107.111C166.819 107.111 168.31 106.384 169.409 105.495C172.314 103.069 174.355 99.4317 177.102 92.3987C175.846 92.8838 169.252 95.4706 165.013 99.4317L165.091 99.3508Z" fill="#CCB46B"/>
<path d="M204.579 57.7985C204.579 49.8763 207.326 43.1667 212.821 37.6697C218.316 32.1727 224.989 29.3434 232.839 29.3434C240.69 29.3434 247.441 32.0919 253.015 37.6697C258.431 43.2476 261.179 50.1188 261.179 58.2027C261.179 66.2865 258.431 73.2386 252.936 78.8164C247.441 84.3134 240.611 87.0619 232.604 87.0619C224.597 87.0619 218.002 84.2326 212.586 78.6548C207.248 73.1577 204.5 66.1248 204.5 57.7985H204.579ZM217.139 58.041C217.139 63.538 218.552 67.8224 221.378 70.9751C224.283 74.2086 228.129 75.8254 232.839 75.8254C237.55 75.8254 241.475 74.2086 244.301 71.056C247.127 67.9033 248.619 63.6188 248.619 58.2835C248.619 52.9482 247.205 48.7446 244.301 45.511C241.396 42.2775 237.55 40.6607 232.839 40.6607C228.129 40.6607 224.361 42.2775 221.457 45.511C218.552 48.7446 217.06 52.8673 217.06 57.9601L217.139 58.041Z" fill="#0063FF"/>
<path d="M271.227 15.7629C271.227 17.4605 270.992 19.0773 270.599 20.7749C270.207 22.3916 269.579 23.9276 268.794 25.3827C268.009 26.8377 266.988 28.0503 265.732 29.1012C264.476 30.1521 263.063 30.9605 261.336 31.3647V26.4336C262.278 26.1102 263.141 25.5443 263.769 24.7359C264.476 23.9276 265.026 22.9575 265.418 21.9066C265.811 20.8557 266.203 19.724 266.36 18.5922C266.517 17.4605 266.596 16.4904 266.517 15.5204H261.807V3.47546H271.149V15.7629H271.227Z" fill="#0063FF"/>
<path d="M296.112 41.1465L298.389 54.1615H296.897C295.798 49.877 294.071 46.5627 291.716 44.0567C289.361 41.6315 286.692 40.419 283.63 40.419C281.825 40.419 280.333 40.9848 279.077 42.0357C277.821 43.0866 277.272 44.4609 277.272 46.0776C277.272 47.5327 277.743 48.8261 278.685 49.7154C279.627 50.6046 281.825 52.0597 285.2 53.9998C290.696 57.0717 294.542 59.5776 296.74 61.3561C300.194 64.1046 301.922 67.6615 301.922 72.0267C301.922 74.2094 301.529 76.2303 300.665 78.0088C299.802 79.7872 298.624 81.3231 296.976 82.6166C295.327 83.91 293.365 84.9609 291.167 85.6076C288.89 86.3351 286.457 86.6585 283.787 86.6585C279.391 86.6585 274.132 85.6076 268.008 83.5866L266.674 66.5297H268.008C271.305 78.1704 276.33 83.9908 283.238 83.9908C285.671 83.9908 287.713 83.2633 289.283 81.7273C290.853 80.1914 291.638 78.2513 291.638 75.8261C291.638 73.401 290.696 71.38 288.89 69.8441C287.791 68.9549 285.122 67.2573 280.804 64.8321C276.487 62.407 273.582 60.4669 272.012 59.0926C269.421 56.91 268.165 54.0806 268.165 50.6854C268.165 47.0477 269.578 44.0567 272.326 41.7124C275.074 39.4489 278.685 38.2363 283.081 38.2363C286.535 38.2363 290.931 39.1256 296.112 40.9848V41.1465ZM269.657 82.1315L270.677 82.4549C272.091 83.0207 273.739 83.5058 275.545 83.9908L276.722 84.2333C274.995 83.1016 273.582 81.889 272.562 80.7573C271.462 79.5447 270.363 78.0088 269.107 75.9878L269.657 82.1315ZM287.556 84.5567C290.853 84.0716 293.365 82.9399 295.249 80.9998C297.133 79.0597 297.996 76.6345 297.996 73.7243C297.996 70.8142 296.976 68.2273 294.856 65.9639C293.051 63.9429 289.518 61.5986 284.337 58.7693C280.019 56.3441 277.193 54.4848 275.702 52.9489C274.21 51.4938 273.504 49.7962 273.504 47.9369C273.504 45.0267 275.074 42.5208 278.214 40.2573C275.545 41.1465 273.504 42.5208 272.091 44.2992C270.677 46.0776 269.971 48.1794 269.971 50.5238C269.971 53.2723 270.913 55.5357 272.797 57.3142C274.21 58.6884 277.193 60.6285 281.589 63.2154C286.378 65.883 289.361 67.8231 290.696 69.0357C292.658 70.8142 293.6 73.0776 293.6 75.7453C293.6 79.9489 291.638 82.8591 287.634 84.4758L287.556 84.5567Z" fill="#CCB46B"/>
</g>
<defs>
<clipPath id="clip0_737_950">
<rect width="302" height="108" fill="white"/>
</clipPath>
</defs>
</svg>
