<svg width="27" height="72" viewBox="0 0 27 72" fill="none" xmlns="http://www.w3.org/2000/svg">
<path d="M11.1229 60.8853C11.1229 67.0006 6.14452 72 0 72V68.5C4.08139 68.5 7.35548 65.349 7.35548 61.3316V11.4716C7.35548 8.1238 10.1362 5.35628 13.5 5.35628C16.8638 5.35628 19.6445 8.07916 19.6445 11.4716V61.3316C19.6445 65.3937 22.9186 68.5 27 68.5L27 72C20.8555 72 15.8771 67.0452 15.8771 60.9299V11.0699C15.8771 9.77539 14.8007 8.70409 13.5 8.70409C12.1993 8.70409 11.1229 9.77539 11.1229 11.0699V60.8853Z" fill="#CCB46B"/>
<path d="M6.14452 61.3319C6.14452 64.6797 3.40864 67 0 67V63C1.30066 63 2.37708 62.2246 2.37708 60.9301V11.0701C2.37708 4.95476 7.35548 0 13.5 0C19.6445 0 24.6229 4.95476 24.6229 11.0701V60.9301C24.6229 62.2246 25.6993 63 27 63V67C23.6362 67 20.8555 64.7243 20.8555 61.3319V11.4718C20.8555 7.40982 17.5814 4.15128 13.5 4.15128C9.4186 4.15128 6.14452 7.45446 6.14452 11.4718V61.3319Z" fill="#CCB46B"/>
</svg>
