<svg width="70" height="80" viewBox="0 0 70 80" fill="none" xmlns="http://www.w3.org/2000/svg">
<g clip-path="url(#clip0_737_96)">
<path d="M44.6679 51.4422H30.9649L31.6655 50.3076H45.3684L44.6679 51.4422Z" fill="#CCB46B"/>
<path d="M40.4084 71.5047C40.4084 74.7147 43.0426 77.3159 46.3212 77.3159C49.5998 77.3159 52.2339 74.7147 52.2339 71.5047C52.2339 68.2948 49.5998 65.6936 46.3212 65.6936C43.0426 65.6936 40.4084 68.2948 40.4084 71.5047ZM46.3212 67.7413C48.4229 67.7413 50.1322 69.4293 50.1322 71.5047C50.1322 73.5801 48.4229 75.2681 46.3212 75.2681C44.2195 75.2681 42.5101 73.5801 42.5101 71.5047C42.5101 69.4293 44.2195 67.7413 46.3212 67.7413Z" fill="#CCB46B"/>
<path d="M47.2458 63.0367L50.8887 57.1702H48.2546L44.5276 63.175L42.7342 66.0529C43.6869 65.4718 44.7798 65.0844 45.9848 65.0567C46.0969 65.0567 46.1809 65.0567 46.293 65.0567C49.9079 65.0567 52.8503 67.9623 52.8503 71.532C52.8503 75.1017 49.9079 78.0072 46.293 78.0072C42.6781 78.0072 39.7918 75.1017 39.7358 71.532C39.7358 70.3421 40.044 69.2352 40.5764 68.2943L40.6045 68.239C40.6325 68.1837 40.6605 68.1283 40.7166 68.073C40.7166 68.073 40.7166 68.0453 40.7446 68.0176L43.5748 63.4517L47.47 57.1978H44.8358L38.8671 67.2151C38.5868 67.6856 38.3346 68.2113 38.1385 68.7648C38.4467 69.6226 38.6149 70.5635 38.6149 71.532C38.6149 72.5005 38.4467 73.4414 38.1385 74.2992C39.3154 77.6475 42.51 80.0273 46.293 80.0273C51.0568 80.0273 54.8959 76.2086 54.8959 71.532C54.8959 67.1598 51.5332 63.5347 47.2178 63.0643L47.2458 63.0367Z" fill="#CCB46B"/>
<path d="M23.4832 71.5047C23.4832 74.7147 26.1173 77.3159 29.3679 77.3159C32.6185 77.3159 35.2807 74.7147 35.2807 71.5047C35.2807 68.2948 32.6465 65.6936 29.3679 65.6936C26.0893 65.6936 23.4832 68.2948 23.4832 71.5047ZM29.3679 67.7413C31.4696 67.7413 33.179 69.4293 33.179 71.5047C33.179 73.5801 31.4696 75.2681 29.3679 75.2681C27.2662 75.2681 25.5569 73.5801 25.5569 71.5047C25.5569 69.4293 27.2662 67.7413 29.3679 67.7413Z" fill="#CCB46B"/>
<path d="M30.3204 63.0367L33.9633 57.1702H31.3292L27.6022 63.175L25.8087 66.0529C26.7615 65.4718 27.8544 65.0844 29.0593 65.0567C29.1714 65.0567 29.2555 65.0567 29.3676 65.0567C32.9825 65.0567 35.9248 67.9623 35.9248 71.532C35.9248 75.1017 32.9825 78.0072 29.3676 78.0072C25.7527 78.0072 22.8664 75.1017 22.8103 71.532C22.8103 70.3421 23.1186 69.2352 23.651 68.2943L23.679 68.239C23.7071 68.1837 23.7351 68.1283 23.7911 68.073C23.7911 68.073 23.7911 68.0453 23.8192 68.0176L26.6494 63.4517L30.5445 57.1978H27.9104L21.9417 67.2151C21.185 68.4881 20.7647 69.9547 20.7647 71.532C20.7647 76.2362 24.6318 80.0273 29.3676 80.0273C34.1034 80.0273 37.9705 76.2086 37.9705 71.532C37.9705 67.1598 34.6078 63.5347 30.2923 63.0643L30.3204 63.0367Z" fill="#CCB46B"/>
<path d="M9.75173 28.53C6.0808 28.53 3.0824 31.4909 3.0824 35.116C3.0824 38.741 6.0808 41.7019 9.75173 41.7019C13.4227 41.7019 16.4211 38.741 16.4211 35.116C16.4211 31.4909 13.4227 28.53 9.75173 28.53ZM9.75173 39.4052C7.36983 39.4052 5.43628 37.4958 5.43628 35.1437C5.43628 32.7915 7.36983 30.8822 9.75173 30.8822C12.1336 30.8822 14.0672 32.7915 14.0672 35.1437C14.0672 37.4958 12.1336 39.4052 9.75173 39.4052Z" fill="#CCB46B"/>
<path d="M67.6462 33.5939V37.9108C67.6462 40.4289 65.6005 42.449 63.0785 42.449C60.5565 42.449 58.5109 40.4289 58.5109 37.9384V7.08405C58.5109 4.98097 56.8015 3.29298 54.6718 3.29298C52.5421 3.29298 50.8327 4.98097 50.8327 7.08405V37.8831C50.8327 40.4012 48.7871 42.4213 46.2651 42.4213C43.743 42.4213 41.6974 40.4012 41.6974 37.9108V7.08405C41.6974 4.98097 39.988 3.29298 37.8583 3.29298C35.7286 3.29298 34.0193 4.98097 34.0193 7.08405V37.9108C34.0193 40.4012 31.9736 42.4213 29.4516 42.4213C26.9296 42.4213 24.884 40.4012 24.884 37.9108V7.08405C24.884 4.98097 23.1746 3.29298 21.0449 3.29298C18.9152 3.29298 17.2058 4.98097 17.2058 7.08405V34.9498C17.2058 34.9498 17.2058 35.0605 17.2058 35.1159C17.2058 39.156 13.8711 42.4213 9.80789 42.4213C5.74464 42.4213 2.40997 39.1283 2.40997 35.1159C2.40997 31.1034 5.74464 27.8104 9.80789 27.8104C12.7502 27.8104 15.2723 29.4984 16.4772 31.9336V7.08405C16.4772 4.59357 18.5229 2.5735 21.0449 2.5735C23.5669 2.5735 25.6125 4.59357 25.6125 7.08405V37.9108C25.6125 40.0138 27.3219 41.7018 29.4516 41.7018C31.5813 41.7018 33.2907 40.0138 33.2907 37.9108V7.08405C33.2907 4.59357 35.3363 2.5735 37.8583 2.5735C40.3804 2.5735 42.426 4.59357 42.426 7.08405V37.9108C42.426 40.0138 44.1354 41.7018 46.2651 41.7018C48.3948 41.7018 50.1041 39.9862 50.1041 37.8831V7.08405C50.1041 4.59357 52.1498 2.5735 54.6718 2.5735C57.1938 2.5735 59.2394 4.59357 59.2394 7.08405V37.9108C59.2394 40.0138 60.9488 41.7018 63.0785 41.7018C65.2082 41.7018 66.9176 39.9862 66.9176 37.8831V32.9298L64.5637 30.8267V37.6617C64.5637 38.4642 63.8912 39.1283 63.0785 39.1283C62.2659 39.1283 61.5933 38.4642 61.5933 37.6617V6.835C61.5933 3.0716 58.4828 0 54.6718 0C50.8607 0 47.7502 3.0716 47.7502 6.835V37.6617C47.7502 38.4642 47.0777 39.1283 46.2651 39.1283C45.4524 39.1283 44.7799 38.4642 44.7799 37.6617V6.835C44.7799 3.0716 41.6694 0 37.8583 0C34.0473 0 30.9368 3.0716 30.9368 6.835V37.6617C30.9368 38.4642 30.2643 39.1283 29.4516 39.1283C28.639 39.1283 27.9664 38.4642 27.9664 37.6617V6.835C27.9664 3.0716 24.8559 0 21.0449 0C17.2338 0 14.1233 3.0716 14.1233 6.835V26.2331C12.8063 25.5967 11.3491 25.2369 9.80789 25.2369C4.42759 25.2369 0.0560913 29.5538 0.0560913 34.8668C0.0560913 40.1799 4.42759 44.4967 9.80789 44.4967C15.1882 44.4967 19.5597 40.1799 19.5597 34.8668C19.5597 34.7008 19.5597 34.5348 19.5597 34.3964V6.835C19.5597 6.03251 20.2322 5.36838 21.0449 5.36838C21.8575 5.36838 22.5301 6.03251 22.5301 6.835V37.6617C22.5301 41.4251 25.6406 44.4967 29.4516 44.4967C33.2627 44.4967 36.3731 41.4251 36.3731 37.6617V6.835C36.3731 6.03251 37.0457 5.36838 37.8583 5.36838C38.671 5.36838 39.3435 6.03251 39.3435 6.835V37.6617C39.3435 41.4251 42.454 44.4967 46.2651 44.4967C50.0761 44.4967 53.1866 41.4251 53.1866 37.6617V6.835C53.1866 6.03251 53.8591 5.36838 54.6718 5.36838C55.4844 5.36838 56.157 6.03251 56.157 6.835V37.6617C56.157 41.4251 59.2675 44.4967 63.0785 44.4967C66.8896 44.4967 70 41.4251 70 37.6617V35.697L67.6462 33.5939Z" fill="#CCB46B"/>
</g>
<defs>
<clipPath id="clip0_737_96">
<rect width="70" height="80" fill="white"/>
</clipPath>
</defs>
</svg>
