<svg width="22" height="22" viewBox="0 0 22 22" fill="none" xmlns="http://www.w3.org/2000/svg">
<path d="M14.9837 1.77734H7.77969C4.46466 1.77734 1.77637 4.46564 1.77637 7.78067V14.9846C1.77637 18.2997 4.46466 20.9881 7.77969 20.9881H14.9837C18.2987 20.9881 20.987 18.2997 20.987 14.9846V7.78067C20.987 4.46564 18.2987 1.77734 14.9837 1.77734ZM19.186 14.9846C19.186 17.3019 17.301 19.187 14.9837 19.187H7.77969C5.46241 19.187 3.57736 17.3019 3.57736 14.9846V7.78067C3.57736 5.46338 5.46241 3.57834 7.77969 3.57834H14.9837C17.301 3.57834 19.186 5.46338 19.186 7.78067V14.9846Z" fill="white"/>
<path d="M11.3818 6.58008C8.72949 6.58008 6.5791 8.73047 6.5791 11.3827C6.5791 14.035 8.72949 16.1854 11.3818 16.1854C14.034 16.1854 16.1844 14.035 16.1844 11.3827C16.1844 8.73047 14.034 6.58008 11.3818 6.58008ZM11.3818 14.3844C9.72725 14.3844 8.3801 13.0372 8.3801 11.3827C8.3801 9.72701 9.72725 8.38107 11.3818 8.38107C13.0363 8.38107 14.3834 9.72701 14.3834 11.3827C14.3834 13.0372 13.0363 14.3844 11.3818 14.3844Z" fill="white"/>
<path d="M16.5443 6.85998C16.8977 6.85998 17.1842 6.57347 17.1842 6.22004C17.1842 5.86659 16.8977 5.58008 16.5443 5.58008C16.1908 5.58008 15.9043 5.86659 15.9043 6.22004C15.9043 6.57347 16.1908 6.85998 16.5443 6.85998Z" fill="white"/>
</svg>
