<svg width="720" height="554" viewBox="0 0 720 554" fill="none" xmlns="http://www.w3.org/2000/svg">
<g clip-path="url(#clip0_737_123)">
<path d="M405.854 417.637H340.863L344.185 412.219H409.176L405.854 417.637Z" fill="#CCB46B"/>
<path d="M385.651 513.435C385.651 528.762 398.144 541.183 413.695 541.183C429.245 541.183 441.738 528.762 441.738 513.435C441.738 498.107 429.245 485.687 413.695 485.687C398.144 485.687 385.651 498.107 385.651 513.435ZM413.695 495.465C423.663 495.465 431.77 503.525 431.77 513.435C431.77 523.345 423.663 531.405 413.695 531.405C403.727 531.405 395.619 523.345 395.619 513.435C395.619 503.525 403.727 495.465 413.695 495.465Z" fill="#CCB46B"/>
<path d="M418.08 473.001L435.358 444.989H422.864L405.188 473.662L396.682 487.404C401.201 484.629 406.384 482.779 412.099 482.647C412.631 482.647 413.029 482.647 413.561 482.647C430.706 482.647 444.661 496.521 444.661 513.566C444.661 530.611 430.706 544.486 413.561 544.486C396.416 544.486 382.727 530.611 382.461 513.566C382.461 507.884 383.923 502.599 386.448 498.106L386.581 497.842C386.714 497.578 386.847 497.314 387.113 497.049C387.113 497.049 387.113 496.917 387.245 496.785L400.669 474.983L419.143 445.121H406.65L378.341 492.953C377.012 495.2 375.816 497.71 374.885 500.353C376.347 504.449 377.145 508.941 377.145 513.566C377.145 518.191 376.347 522.683 374.885 526.78C380.467 542.768 395.619 554.131 413.561 554.131C436.155 554.131 454.363 535.897 454.363 513.566C454.363 492.689 438.414 475.379 417.947 473.133L418.08 473.001Z" fill="#CCB46B"/>
<path d="M305.375 513.435C305.375 528.762 317.869 541.183 333.286 541.183C348.703 541.183 361.329 528.762 361.329 513.435C361.329 498.107 348.836 485.687 333.286 485.687C317.736 485.687 305.375 498.107 305.375 513.435ZM333.286 495.465C343.254 495.465 351.361 503.525 351.361 513.435C351.361 523.345 343.254 531.405 333.286 531.405C323.318 531.405 315.21 523.345 315.21 513.435C315.21 503.525 323.318 495.465 333.286 495.465Z" fill="#CCB46B"/>
<path d="M337.805 473.001L355.083 444.989H342.59L324.913 473.662L316.407 487.404C320.926 484.629 326.11 482.779 331.825 482.647C332.356 482.647 332.755 482.647 333.286 482.647C350.431 482.647 364.387 496.521 364.387 513.566C364.387 530.611 350.431 544.486 333.286 544.486C316.142 544.486 302.452 530.611 302.186 513.566C302.186 507.884 303.648 502.599 306.174 498.106L306.307 497.842C306.439 497.578 306.572 497.314 306.838 497.049C306.838 497.049 306.838 496.917 306.971 496.785L320.395 474.983L338.869 445.121H326.375L298.066 492.953C294.478 499.031 292.484 506.035 292.484 513.566C292.484 536.029 310.825 554.131 333.286 554.131C355.748 554.131 374.089 535.897 374.089 513.566C374.089 492.689 358.14 475.379 337.672 473.133L337.805 473.001Z" fill="#CCB46B"/>
<path d="M240.251 308.231C222.84 308.231 208.619 322.37 208.619 339.679C208.619 356.989 222.84 371.127 240.251 371.127C257.662 371.127 271.883 356.989 271.883 339.679C271.883 322.37 257.662 308.231 240.251 308.231ZM240.251 360.16C228.954 360.16 219.783 351.043 219.783 339.812C219.783 328.58 228.954 319.463 240.251 319.463C251.548 319.463 260.718 328.58 260.718 339.812C260.718 351.043 251.548 360.16 240.251 360.16Z" fill="#CCB46B"/>
<path d="M514.836 332.411V353.024C514.836 365.048 505.134 374.694 493.172 374.694C481.211 374.694 471.509 365.048 471.509 353.156V205.826C471.509 195.784 463.401 187.724 453.3 187.724C443.2 187.724 435.092 195.784 435.092 205.826V352.892C435.092 364.916 425.39 374.562 413.429 374.562C401.467 374.562 391.765 364.916 391.765 353.024V205.826C391.765 195.784 383.658 187.724 373.557 187.724C363.456 187.724 355.349 195.784 355.349 205.826V353.024C355.349 364.916 345.646 374.562 333.685 374.562C321.723 374.562 312.021 364.916 312.021 353.024V205.826C312.021 195.784 303.914 187.724 293.813 187.724C283.712 187.724 275.605 195.784 275.605 205.826V338.885C275.605 338.885 275.605 339.414 275.605 339.678C275.605 358.97 259.789 374.562 240.517 374.562C221.246 374.562 205.43 358.838 205.43 339.678C205.43 320.519 221.246 304.795 240.517 304.795C254.473 304.795 266.434 312.855 272.149 324.483V205.826C272.149 193.934 281.851 184.288 293.813 184.288C305.774 184.288 315.477 193.934 315.477 205.826V353.024C315.477 363.066 323.584 371.126 333.685 371.126C343.786 371.126 351.893 363.066 351.893 353.024V205.826C351.893 193.934 361.595 184.288 373.557 184.288C385.518 184.288 395.22 193.934 395.22 205.826V353.024C395.22 363.066 403.328 371.126 413.429 371.126C423.529 371.126 431.637 362.934 431.637 352.892V205.826C431.637 193.934 441.339 184.288 453.3 184.288C465.262 184.288 474.964 193.934 474.964 205.826V353.024C474.964 363.066 483.071 371.126 493.172 371.126C503.273 371.126 511.38 362.934 511.38 352.892V329.24L500.216 319.198V351.835C500.216 355.667 497.027 358.838 493.172 358.838C489.318 358.838 486.128 355.667 486.128 351.835V204.637C486.128 186.667 471.376 172 453.3 172C435.225 172 420.473 186.667 420.473 204.637V351.835C420.473 355.667 417.283 358.838 413.429 358.838C409.574 358.838 406.385 355.667 406.385 351.835V204.637C406.385 186.667 391.632 172 373.557 172C355.481 172 340.729 186.667 340.729 204.637V351.835C340.729 355.667 337.539 358.838 333.685 358.838C329.83 358.838 326.641 355.667 326.641 351.835V204.637C326.641 186.667 311.888 172 293.813 172C275.738 172 260.985 186.667 260.985 204.637V297.263C254.738 294.224 247.827 292.506 240.517 292.506C214.999 292.506 194.266 313.119 194.266 338.489C194.266 363.859 214.999 384.472 240.517 384.472C266.035 384.472 286.769 363.859 286.769 338.489C286.769 337.696 286.769 336.903 286.769 336.243V204.637C286.769 200.805 289.959 197.634 293.813 197.634C297.667 197.634 300.857 200.805 300.857 204.637V351.835C300.857 369.805 315.61 384.472 333.685 384.472C351.76 384.472 366.513 369.805 366.513 351.835V204.637C366.513 200.805 369.702 197.634 373.557 197.634C377.411 197.634 380.601 200.805 380.601 204.637V351.835C380.601 369.805 395.353 384.472 413.429 384.472C431.504 384.472 446.256 369.805 446.256 351.835V204.637C446.256 200.805 449.446 197.634 453.3 197.634C457.155 197.634 460.344 200.805 460.344 204.637V351.835C460.344 369.805 475.097 384.472 493.172 384.472C511.248 384.472 526 369.805 526 351.835V342.453L514.836 332.411Z" fill="#CCB46B"/>
</g>
<g clip-path="url(#clip1_737_123)">
<path d="M36.1239 171.059L35.4627 169.241C39.1957 166.65 41.3781 163.709 42.0744 160.406C42.6361 157.944 41.6473 154.05 39.1313 148.7L19.0389 106.427C17.5176 103.205 16.1953 100.895 15.107 99.4746C13.9836 98.0538 12.6261 97.013 11.0405 96.3523C8.19689 95.1479 4.79158 95.1128 0.830429 96.2529L0.00543213 94.5164C1.46234 93.92 2.21713 93.6101 2.25223 93.5926L8.96338 90.8211C11.1458 89.9265 13.457 88.9033 15.9027 87.7515C20.2676 85.6699 24.8899 83.2084 29.8165 80.32C34.3745 77.7122 37.7798 75.8587 40.0617 74.7712C46.0414 71.9296 51.9276 70.2983 57.644 69.8364C63.3956 69.392 68.8488 70.0352 74.0387 71.7659C79.2578 73.5141 83.9562 76.309 88.1514 80.1212C92.3466 83.9334 95.787 88.6928 98.4609 94.3702C101.17 100.083 102.691 105.83 102.99 111.607C103.288 117.384 102.393 122.868 100.281 128.055C98.1976 133.223 94.9912 137.948 90.7317 142.222C86.4663 146.484 81.1828 150.115 74.8695 153.103C72.5583 154.19 68.7552 155.728 63.4366 157.693C59.7036 159.049 56.1345 160.552 52.7292 162.154C50.3478 163.294 47.7382 164.616 44.8654 166.147L37.5282 170.328C37.101 170.527 36.6681 170.755 36.1415 171.053L36.1239 171.059ZM42.7999 164.388C45.8717 162.522 48.7505 160.955 51.36 159.716C53.9696 158.476 56.5499 157.418 59.0951 156.529L56.1871 156.05C54.7302 155.833 53.6068 155.488 52.8813 155.027C52.1207 154.565 51.4946 153.787 50.9622 152.699C50.7044 152.221 50.4648 151.739 50.229 151.265C50.165 151.136 50.1014 151.008 50.0377 150.881L49.5755 149.922L24.7202 97.5627L24.258 96.6038C23.9947 96.0074 23.7314 95.3817 23.4623 94.721C22.9357 93.616 22.7016 92.6921 22.8011 91.9613C22.8655 91.2187 23.3277 90.0961 24.1585 88.5583L26.1069 84.9566C22.9357 86.8218 20.1915 88.3069 17.7809 89.4471C15.5341 90.5054 12.6905 91.7098 9.18572 93.0488L8.16178 93.4639L12.158 94.2416C13.7437 94.5047 14.8671 94.838 15.5634 95.2648C16.2596 95.6916 16.8506 96.4693 17.383 97.5919C17.4316 97.6846 17.478 97.7742 17.5229 97.8607C17.6619 98.1289 17.7858 98.3678 17.9096 98.58C18.0545 98.8437 18.1765 99.0937 18.2918 99.33C18.3069 99.3609 18.3219 99.3916 18.3367 99.422L18.7639 100.363L43.6483 152.74L44.0755 153.682C44.119 153.784 44.1693 153.892 44.2228 154.007C44.2916 154.155 44.3658 154.314 44.4382 154.489C44.5377 154.787 44.7015 155.149 44.9005 155.564C45.4622 156.722 45.6962 157.646 45.5967 158.353C45.5324 159.049 45.0702 160.172 44.21 161.721L42.7882 164.382L42.7999 164.388ZM30.5713 96.8493L50.9973 140.193C53.3084 144.999 55.3914 148.303 57.2754 150.051C59.06 151.67 61.1781 152.577 63.6531 152.74C66.1632 152.922 68.7727 152.343 71.552 151.039C75.8466 148.993 79.3865 146.233 82.1599 142.748C84.9333 139.246 86.8876 135.217 88.0402 130.627C89.1636 126.037 89.3976 121.149 88.6663 115.945C87.9407 110.759 86.3551 105.573 83.8743 100.375C80.6328 93.5399 76.4727 88.0263 71.3823 83.7989C66.2919 79.5891 60.7392 76.9931 54.7946 76.0517C48.8148 75.1103 43.0632 75.9523 37.5457 78.56C33.1808 80.6416 30.4074 83.1499 29.284 86.0909C28.1255 89.0319 28.5585 92.6161 30.5713 96.8435V96.8493ZM80.7228 146.733C84.5151 143.701 87.4952 140.567 89.7604 137.34C92.0072 134.071 93.7918 130.306 95.079 126.014C97.9519 116.156 97.1269 106.462 92.5982 96.937C89.8891 91.2245 86.2849 86.4359 81.7913 82.5711C77.327 78.7062 72.2424 76.0341 66.5552 74.5315C60.868 73.0464 55.052 72.83 49.0372 73.8883C51.518 73.9059 53.9286 74.0871 56.2749 74.4672C58.6563 74.8472 60.8329 75.4261 62.8866 76.2329C64.9696 77.0398 66.8536 77.9812 68.5738 79.0395C75.9754 83.5299 81.8264 90.2832 86.0918 99.27C88.3737 104.059 89.9242 108.912 90.8195 113.852C91.7147 118.787 91.779 123.412 91.0827 127.721C90.521 131.422 89.3977 134.755 87.7477 137.696C86.1406 140.63 83.7913 143.638 80.7228 146.733Z" fill="#CCB46B"/>
<path d="M36.1239 171.059L35.4627 169.241C39.1957 166.65 41.3781 163.709 42.0744 160.406C42.6361 157.944 41.6473 154.05 39.1313 148.7L19.0389 106.427C17.5176 103.205 16.1953 100.895 15.107 99.4746C13.9836 98.0538 12.6261 97.013 11.0405 96.3523C8.19689 95.1479 4.79158 95.1128 0.830429 96.2529L0.00543213 94.5164C1.46234 93.92 2.21713 93.6101 2.25223 93.5926L8.96338 90.8211C11.1458 89.9265 13.457 88.9033 15.9027 87.7515C20.2676 85.6699 24.8899 83.2084 29.8165 80.32C34.3745 77.7122 37.7798 75.8587 40.0617 74.7712C46.0414 71.9296 51.9276 70.2983 57.644 69.8364C63.3956 69.392 68.8488 70.0352 74.0387 71.7659C79.2578 73.5141 83.9562 76.309 88.1514 80.1212C92.3466 83.9334 95.787 88.6928 98.4609 94.3702C101.17 100.083 102.691 105.83 102.99 111.607C103.288 117.384 102.393 122.868 100.281 128.055C98.1976 133.223 94.9912 137.948 90.7317 142.222C86.4663 146.484 81.1828 150.115 74.8695 153.103C72.5583 154.19 68.7552 155.728 63.4366 157.693C59.7036 159.049 56.1345 160.552 52.7292 162.154C50.3478 163.294 47.7382 164.616 44.8654 166.147L37.5282 170.328C37.101 170.527 36.6681 170.755 36.1415 171.053L36.1239 171.059ZM42.7999 164.388C45.8717 162.522 48.7505 160.955 51.36 159.716C53.9696 158.476 56.5499 157.418 59.0951 156.529L56.1871 156.05C54.7302 155.833 53.6068 155.488 52.8813 155.027C52.1207 154.565 51.4946 153.787 50.9622 152.699C50.7044 152.221 50.4648 151.739 50.229 151.265C50.165 151.136 50.1014 151.008 50.0377 150.881L49.5755 149.922L24.7202 97.5627L24.258 96.6038C23.9947 96.0074 23.7314 95.3817 23.4623 94.721C22.9357 93.616 22.7016 92.6921 22.8011 91.9613C22.8655 91.2187 23.3277 90.0961 24.1585 88.5583L26.1069 84.9566C22.9357 86.8218 20.1915 88.3069 17.7809 89.4471C15.5341 90.5054 12.6905 91.7098 9.18572 93.0488L8.16178 93.4639L12.158 94.2416C13.7437 94.5047 14.8671 94.838 15.5634 95.2648C16.2596 95.6916 16.8506 96.4693 17.383 97.5919C17.4316 97.6846 17.478 97.7742 17.5229 97.8607C17.6619 98.1289 17.7858 98.3678 17.9096 98.58C18.0545 98.8437 18.1765 99.0937 18.2918 99.33C18.3069 99.3609 18.3219 99.3916 18.3367 99.422L18.7639 100.363L43.6483 152.74L44.0755 153.682C44.119 153.784 44.1693 153.892 44.2228 154.007C44.2916 154.155 44.3658 154.314 44.4382 154.489C44.5377 154.787 44.7015 155.149 44.9005 155.564C45.4622 156.722 45.6962 157.646 45.5967 158.353C45.5324 159.049 45.0702 160.172 44.21 161.721L42.7882 164.382L42.7999 164.388ZM30.5713 96.8493L50.9973 140.193C53.3084 144.999 55.3914 148.303 57.2754 150.051C59.06 151.67 61.1781 152.577 63.6531 152.74C66.1632 152.922 68.7727 152.343 71.552 151.039C75.8466 148.993 79.3865 146.233 82.1599 142.748C84.9333 139.246 86.8876 135.217 88.0402 130.627C89.1636 126.037 89.3976 121.149 88.6663 115.945C87.9407 110.759 86.3551 105.573 83.8743 100.375C80.6328 93.5399 76.4727 88.0263 71.3823 83.7989C66.2919 79.5891 60.7392 76.9931 54.7946 76.0517C48.8148 75.1103 43.0632 75.9523 37.5457 78.56C33.1808 80.6416 30.4074 83.1499 29.284 86.0909C28.1255 89.0319 28.5585 92.6161 30.5713 96.8435V96.8493ZM80.7228 146.733C84.5151 143.701 87.4952 140.567 89.7604 137.34C92.0072 134.071 93.7918 130.306 95.079 126.014C97.9519 116.156 97.1269 106.462 92.5982 96.937C89.8891 91.2245 86.2849 86.4359 81.7913 82.5711C77.327 78.7062 72.2424 76.0341 66.5552 74.5315C60.868 73.0464 55.052 72.83 49.0372 73.8883C51.518 73.9059 53.9286 74.0871 56.2749 74.4672C58.6563 74.8472 60.8329 75.4261 62.8866 76.2329C64.9696 77.0398 66.8536 77.9812 68.5738 79.0395C75.9754 83.5299 81.8264 90.2832 86.0918 99.27C88.3737 104.059 89.9242 108.912 90.8195 113.852C91.7147 118.787 91.779 123.412 91.0827 127.721C90.521 131.422 89.3977 134.755 87.7477 137.696C86.1406 140.63 83.7913 143.638 80.7228 146.733Z" stroke="#CCB46B"/>
<path d="M121.784 104.561C120.297 100.006 120.134 95.364 121.286 90.6572C122.474 85.9504 124.791 81.7756 128.226 78.1388C131.66 74.5079 135.89 71.8826 140.881 70.2454C144.585 69.0234 148.318 68.4972 152.051 68.696C155.755 68.8948 159.254 69.7543 162.559 71.257C165.83 72.7772 168.674 74.8587 171.084 77.5132C173.53 80.1911 175.28 83.2257 176.403 86.6462C177.889 91.1542 178.053 95.7791 176.93 100.498C175.806 105.204 173.524 109.379 170.09 113.016C166.655 116.647 162.454 119.272 157.563 120.874C152.572 122.511 147.581 122.903 142.66 122.049C137.704 121.19 133.374 119.208 129.642 116.103C125.909 112.998 123.264 109.151 121.778 104.561H121.784ZM146.44 120.81C144.058 119.933 142.408 119.243 141.484 118.746C140.56 118.249 139.501 117.506 138.313 116.547C134.48 113.297 131.473 108.438 129.355 102C125.85 91.3179 127.044 82.6293 132.889 75.9287C129.981 78.2265 127.67 80.9512 125.914 84.0852C124.194 87.225 123.141 90.4759 122.743 93.8613C122.345 97.2642 122.708 100.597 123.767 103.901C124.826 107.122 126.511 110.011 128.857 112.554C131.169 115.097 133.884 117.062 136.985 118.43C138.605 119.056 139.928 119.506 140.887 119.752C141.812 120.015 143.696 120.36 146.44 120.81ZM134.574 99.9714C135.697 103.392 137.055 106.409 138.705 109.052C140.326 111.695 142.11 113.805 144.094 115.407C146.042 117.009 148.09 118.068 150.243 118.576C152.39 119.091 154.538 118.992 156.656 118.296C158.739 117.617 160.488 116.413 161.945 114.712C163.367 112.993 164.391 110.946 165.017 108.555C165.614 106.157 165.778 103.386 165.514 100.264C165.251 97.1239 164.555 93.873 163.466 90.5051C161.98 85.9796 160.061 82.1674 157.715 79.0802C155.369 75.9755 152.788 73.8121 149.98 72.6076C147.171 71.4031 144.328 71.2686 141.455 72.21C137.09 73.6308 134.281 76.8993 133.059 82.0037C131.801 87.1081 132.333 93.1012 134.58 99.9714H134.574ZM162.665 116.536C167.094 112.554 170.037 108.145 171.488 103.31C172.91 98.457 172.775 93.4871 171.125 88.3827C169.405 83.1672 166.532 78.9399 162.565 75.7357C158.569 72.5141 154.07 70.7834 149.114 70.5319C156.586 72.9584 162.033 79.4661 165.508 90.0198C167.258 95.3698 167.989 100.077 167.621 104.14C167.293 108.221 165.871 111.999 163.355 115.518L162.659 116.542L162.665 116.536Z" fill="#CCB46B"/>
<path d="M121.784 104.561C120.297 100.006 120.134 95.364 121.286 90.6572C122.474 85.9504 124.791 81.7756 128.226 78.1388C131.66 74.5079 135.89 71.8826 140.881 70.2454C144.585 69.0234 148.318 68.4972 152.051 68.696C155.755 68.8948 159.254 69.7543 162.559 71.257C165.83 72.7772 168.674 74.8587 171.084 77.5132C173.53 80.1911 175.28 83.2257 176.403 86.6462C177.889 91.1542 178.053 95.7791 176.93 100.498C175.806 105.204 173.524 109.379 170.09 113.016C166.655 116.647 162.454 119.272 157.563 120.874C152.572 122.511 147.581 122.903 142.66 122.049C137.704 121.19 133.374 119.208 129.642 116.103C125.909 112.998 123.264 109.151 121.778 104.561H121.784ZM146.44 120.81C144.058 119.933 142.408 119.243 141.484 118.746C140.56 118.249 139.501 117.506 138.313 116.547C134.48 113.297 131.473 108.438 129.355 102C125.85 91.3179 127.044 82.6293 132.889 75.9287C129.981 78.2265 127.67 80.9512 125.914 84.0852C124.194 87.225 123.141 90.4759 122.743 93.8613C122.345 97.2642 122.708 100.597 123.767 103.901C124.826 107.122 126.511 110.011 128.857 112.554C131.169 115.097 133.884 117.062 136.985 118.43C138.605 119.056 139.928 119.506 140.887 119.752C141.812 120.015 143.696 120.36 146.44 120.81ZM134.574 99.9714C135.697 103.392 137.055 106.409 138.705 109.052C140.326 111.695 142.11 113.805 144.094 115.407C146.042 117.009 148.09 118.068 150.243 118.576C152.39 119.091 154.538 118.992 156.656 118.296C158.739 117.617 160.488 116.413 161.945 114.712C163.367 112.993 164.391 110.946 165.017 108.555C165.614 106.157 165.778 103.386 165.514 100.264C165.251 97.1239 164.555 93.873 163.466 90.5051C161.98 85.9796 160.061 82.1674 157.715 79.0802C155.369 75.9755 152.788 73.8121 149.98 72.6076C147.171 71.4031 144.328 71.2686 141.455 72.21C137.09 73.6308 134.281 76.8993 133.059 82.0037C131.801 87.1081 132.333 93.1012 134.58 99.9714H134.574ZM162.665 116.536C167.094 112.554 170.037 108.145 171.488 103.31C172.91 98.457 172.775 93.4871 171.125 88.3827C169.405 83.1672 166.532 78.9399 162.565 75.7357C158.569 72.5141 154.07 70.7834 149.114 70.5319C156.586 72.9584 162.033 79.4661 165.508 90.0198C167.258 95.3698 167.989 100.077 167.621 104.14C167.293 108.221 165.871 111.999 163.355 115.518L162.659 116.542L162.665 116.536Z" stroke="#CCB46B"/>
<path d="M206.467 65.0885C208.346 61.6139 210.226 58.6689 212.106 56.2595C213.99 53.8505 215.938 52.0146 217.922 50.7458C219.87 49.477 222.117 48.5649 224.633 48.0387C227.705 47.3779 230.712 47.4949 233.691 48.3836C236.634 49.2607 239.079 50.7926 241.028 52.9384C243.239 55.3473 244.86 58.8848 245.855 63.574L250.185 83.7051C250.91 87.0554 251.905 89.3357 253.192 90.5402C254.479 91.7447 256.562 92.2884 259.406 92.189L259.769 93.8262L233.129 99.5211L232.801 97.884C235.446 96.8081 237.096 95.4575 237.792 93.8379C238.488 92.2007 238.453 89.7275 237.728 86.3596L233.334 65.8836C232.409 61.475 231.45 58.4872 230.525 56.9026C229.536 55.1836 228.243 53.9441 226.693 53.2015C225.142 52.4589 223.422 52.2777 221.573 52.6753C218.993 53.2366 216.646 54.6399 214.569 56.9026C212.521 59.1654 210.041 62.9776 207.168 68.3276L212.223 91.8441C212.949 95.1944 213.943 97.4747 215.231 98.6792C216.518 99.8661 218.601 100.427 221.479 100.316L221.807 101.953L195.167 107.666L194.84 106.029C197.484 104.953 199.169 103.62 199.866 102C200.591 100.398 200.562 97.8898 199.831 94.4869L194.377 69.0409C193.652 65.638 192.628 63.346 191.27 62.124C189.948 60.9195 187.865 60.3874 185.092 60.5745L184.793 59.2356L203.827 52.8098L206.467 65.0885ZM200.678 103.701L212.802 101.094L211.117 100.316C211.018 100.252 210.918 100.217 210.819 100.182L209.894 99.755C209.198 99.3106 208.736 98.5973 208.508 97.6442L208.244 96.4398L205.565 84.0033L204.207 77.712L199.649 56.3764L189.931 59.5981L192.64 60.785C192.695 60.7699 192.755 60.8067 192.874 60.8804C192.894 60.8925 192.915 60.9055 192.938 60.9195L193.862 61.3463C194.325 61.5451 194.658 61.9076 194.922 62.4222C195.156 62.9484 195.419 63.8898 195.717 65.2638L202.528 97.0362C202.891 98.685 203.025 99.7258 202.955 100.176C202.891 100.603 202.493 101.264 201.832 102.123C201.732 102.222 201.697 102.304 201.697 102.339L200.678 103.701ZM238.658 95.5602L250.711 92.9725L249.061 92.1773C248.927 92.0955 248.827 92.0429 248.798 92.0604L247.873 91.616C247.148 91.1366 246.686 90.4408 246.487 89.5053L246.223 88.3008L246.025 87.7044L241.069 64.5563C240.408 61.4867 239.682 59.1069 238.886 57.4055C238.091 55.7216 237.067 54.3183 235.814 53.1781C232.573 50.319 228.975 49.3308 224.972 50.1903C224.575 50.2722 223.65 50.5528 222.228 51.0323C224.809 50.851 226.921 51.1785 228.542 51.9912C230.127 52.8156 231.485 54.2715 232.538 56.3647C233.597 58.4638 234.557 61.4691 235.382 65.3807L240.437 88.8972C240.8 90.5636 240.934 91.6043 240.899 92.037C240.835 92.4814 240.472 93.1245 239.811 93.9841L239.711 94.1302C239.676 94.1478 239.647 94.1653 239.612 94.2121L238.658 95.5602Z" fill="#CCB46B"/>
<path d="M206.467 65.0885C208.346 61.6139 210.226 58.6689 212.106 56.2595C213.99 53.8505 215.938 52.0146 217.922 50.7458C219.87 49.477 222.117 48.5649 224.633 48.0387C227.705 47.3779 230.712 47.4949 233.691 48.3836C236.634 49.2607 239.079 50.7926 241.028 52.9384C243.239 55.3473 244.86 58.8848 245.855 63.574L250.185 83.7051C250.91 87.0554 251.905 89.3357 253.192 90.5402C254.479 91.7447 256.562 92.2884 259.406 92.189L259.769 93.8262L233.129 99.5211L232.801 97.884C235.446 96.8081 237.096 95.4575 237.792 93.8379C238.488 92.2007 238.453 89.7275 237.728 86.3596L233.334 65.8836C232.409 61.475 231.45 58.4872 230.525 56.9026C229.536 55.1836 228.243 53.9441 226.693 53.2015C225.142 52.4589 223.422 52.2777 221.573 52.6753C218.993 53.2366 216.646 54.6399 214.569 56.9026C212.521 59.1654 210.041 62.9776 207.168 68.3276L212.223 91.8441C212.949 95.1944 213.943 97.4747 215.231 98.6792C216.518 99.8661 218.601 100.427 221.479 100.316L221.807 101.953L195.167 107.666L194.84 106.029C197.484 104.953 199.169 103.62 199.866 102C200.591 100.398 200.562 97.8898 199.831 94.4869L194.377 69.0409C193.652 65.638 192.628 63.346 191.27 62.124C189.948 60.9195 187.865 60.3874 185.092 60.5745L184.793 59.2356L203.827 52.8098L206.467 65.0885ZM200.678 103.701L212.802 101.094L211.117 100.316C211.018 100.252 210.918 100.217 210.819 100.182L209.894 99.755C209.198 99.3106 208.736 98.5973 208.508 97.6442L208.244 96.4398L205.565 84.0033L204.207 77.712L199.649 56.3764L189.931 59.5981L192.64 60.785C192.695 60.7699 192.755 60.8067 192.874 60.8804C192.894 60.8925 192.915 60.9055 192.938 60.9195L193.862 61.3463C194.325 61.5451 194.658 61.9076 194.922 62.4222C195.156 62.9484 195.419 63.8898 195.717 65.2638L202.528 97.0362C202.891 98.685 203.025 99.7258 202.955 100.176C202.891 100.603 202.493 101.264 201.832 102.123C201.732 102.222 201.697 102.304 201.697 102.339L200.678 103.701ZM238.658 95.5602L250.711 92.9725L249.061 92.1773C248.927 92.0955 248.827 92.0429 248.798 92.0604L247.873 91.616C247.148 91.1366 246.686 90.4408 246.487 89.5053L246.223 88.3008L246.025 87.7044L241.069 64.5563C240.408 61.4867 239.682 59.1069 238.886 57.4055C238.091 55.7216 237.067 54.3183 235.814 53.1781C232.573 50.319 228.975 49.3308 224.972 50.1903C224.575 50.2722 223.65 50.5528 222.228 51.0323C224.809 50.851 226.921 51.1785 228.542 51.9912C230.127 52.8156 231.485 54.2715 232.538 56.3647C233.597 58.4638 234.557 61.4691 235.382 65.3807L240.437 88.8972C240.8 90.5636 240.934 91.6043 240.899 92.037C240.835 92.4814 240.472 93.1245 239.811 93.9841L239.711 94.1302C239.676 94.1478 239.647 94.1653 239.612 94.2121L238.658 95.5602Z" stroke="#CCB46B"/>
<path d="M357.259 81.8399L355.772 81.8574L320.672 15.1144L317.799 57.1423C317.635 59.4694 317.565 61.6679 317.6 63.7318C317.7 69.7601 319.022 74.385 321.532 77.6008C324.077 80.8225 328.074 83.0034 333.597 84.1377L333.632 86.0555L299.79 86.6812L299.754 84.7634C302.727 83.6232 305.371 81.9568 307.653 79.7408C309.935 77.5307 311.65 74.9697 312.843 72.0462C314.101 68.8421 314.991 63.7728 315.488 56.8032L318.56 12.0564C316.939 9.15049 315.09 7.06897 313.042 5.82942C310.994 4.58986 308.414 3.92916 305.307 3.86484L305.272 1.94704L335.311 1.38573C335.147 1.80086 335.048 2.08152 335.013 2.19261C334.252 4.11041 333.889 5.61308 333.925 6.68307C333.96 8.66519 335.048 11.7348 337.23 15.9154L362.115 63.077L381.119 16.4124C382.64 12.6645 383.366 9.82289 383.331 7.87585C383.296 5.89373 382.406 3.44971 380.686 0.543767L410.526 0L410.562 1.9178C406.431 2.57851 403.458 3.8473 401.639 5.71833C399.819 7.58351 398.93 10.3082 398.994 13.8573C399.029 14.9799 399.093 16.0207 399.257 17.0088L399.456 18.5582L405.506 64.4452C405.55 64.7212 405.594 64.979 405.635 65.2191C405.687 65.5232 405.734 65.7989 405.77 66.0472C405.81 66.337 405.917 66.958 406.081 67.9073C406.178 68.4715 406.295 69.1516 406.431 69.9472C407.127 73.9406 408.414 76.8992 410.298 78.817C412.147 80.7173 415.026 81.9685 418.893 82.5649L418.929 84.4827L379.469 85.2077L379.434 83.2899C383.764 82.1322 386.935 80.6471 388.954 78.8638C390.972 77.0629 391.926 74.8352 391.897 72.1456C391.862 71.1049 391.698 69.4209 391.37 67.0763L384.296 14.249L357.264 81.834L357.259 81.8399ZM320.935 83.1262C318.917 81.0155 317.53 79.2789 316.769 77.9107C316.009 76.5425 315.447 74.7709 315.02 72.6251C314.095 75.1334 313.001 77.1331 311.849 78.6357C310.69 80.156 309.005 81.7405 306.793 83.3893L320.935 83.1262ZM356.265 78.2527L359.535 70.1343L329.958 13.8924C328.501 10.9864 327.746 8.86984 327.711 7.55427C327.711 6.26794 328.009 5.04593 328.635 3.87069L314.394 4.1338C316.74 5.75341 318.49 7.46657 319.683 9.30251C321.304 11.6296 322.691 13.945 323.849 16.237L356.265 78.2527ZM388.158 81.8867L407.191 81.5241L403.921 78.9807C402.499 77.8932 401.539 75.4959 401.013 71.7831L393.079 12.7171C392.979 11.6588 392.915 10.9163 392.915 10.507C392.915 9.54808 393.079 8.72366 393.512 8.04541C393.909 7.34963 394.734 6.47843 395.992 5.42013L399.497 2.56097L385.086 2.82408L394.173 71.0406L394.436 72.4087C394.536 73.3969 394.6 74.1453 394.6 74.6364C394.635 75.6596 394.436 76.4665 394.073 77.0629C393.675 77.6418 392.815 78.4486 391.464 79.4602L388.158 81.8867Z" fill="#CCB46B"/>
<path d="M357.259 81.8399L355.772 81.8574L320.672 15.1144L317.799 57.1423C317.635 59.4694 317.565 61.6679 317.6 63.7318C317.7 69.7601 319.022 74.385 321.532 77.6008C324.077 80.8225 328.074 83.0034 333.597 84.1377L333.632 86.0555L299.79 86.6812L299.754 84.7634C302.727 83.6232 305.371 81.9568 307.653 79.7408C309.935 77.5307 311.65 74.9697 312.843 72.0462C314.101 68.8421 314.991 63.7728 315.488 56.8032L318.56 12.0564C316.939 9.15049 315.09 7.06897 313.042 5.82942C310.994 4.58986 308.414 3.92916 305.307 3.86484L305.272 1.94704L335.311 1.38573C335.147 1.80086 335.048 2.08152 335.013 2.19261C334.252 4.11041 333.889 5.61308 333.925 6.68307C333.96 8.66519 335.048 11.7348 337.23 15.9154L362.115 63.077L381.119 16.4124C382.64 12.6645 383.366 9.82289 383.331 7.87585C383.296 5.89373 382.406 3.44971 380.686 0.543767L410.526 0L410.562 1.9178C406.431 2.57851 403.458 3.8473 401.639 5.71833C399.819 7.58351 398.93 10.3082 398.994 13.8573C399.029 14.9799 399.093 16.0207 399.257 17.0088L399.456 18.5582L405.506 64.4452C405.55 64.7212 405.594 64.979 405.635 65.2191C405.687 65.5232 405.734 65.7989 405.77 66.0472C405.81 66.337 405.917 66.958 406.081 67.9073C406.178 68.4715 406.295 69.1516 406.431 69.9472C407.127 73.9406 408.414 76.8992 410.298 78.817C412.147 80.7173 415.026 81.9685 418.893 82.5649L418.929 84.4827L379.469 85.2077L379.434 83.2899C383.764 82.1322 386.935 80.6471 388.954 78.8638C390.972 77.0629 391.926 74.8352 391.897 72.1456C391.862 71.1049 391.698 69.4209 391.37 67.0763L384.296 14.249L357.264 81.834L357.259 81.8399ZM320.935 83.1262C318.917 81.0155 317.53 79.2789 316.769 77.9107C316.009 76.5425 315.447 74.7709 315.02 72.6251C314.095 75.1334 313.001 77.1331 311.849 78.6357C310.69 80.156 309.005 81.7405 306.793 83.3893L320.935 83.1262ZM356.265 78.2527L359.535 70.1343L329.958 13.8924C328.501 10.9864 327.746 8.86984 327.711 7.55427C327.711 6.26794 328.009 5.04593 328.635 3.87069L314.394 4.1338C316.74 5.75341 318.49 7.46657 319.683 9.30251C321.304 11.6296 322.691 13.945 323.849 16.237L356.265 78.2527ZM388.158 81.8867L407.191 81.5241L403.921 78.9807C402.499 77.8932 401.539 75.4959 401.013 71.7831L393.079 12.7171C392.979 11.6588 392.915 10.9163 392.915 10.507C392.915 9.54808 393.079 8.72366 393.512 8.04541C393.909 7.34963 394.734 6.47843 395.992 5.42013L399.497 2.56097L385.086 2.82408L394.173 71.0406L394.436 72.4087C394.536 73.3969 394.6 74.1453 394.6 74.6364C394.635 75.6596 394.436 76.4665 394.073 77.0629C393.675 77.6418 392.815 78.4486 391.464 79.4602L388.158 81.8867Z" stroke="#CCB46B"/>
<path d="M430.391 87.6986L430.555 86.0322C433.398 85.8159 435.411 85.0558 436.605 83.7519C437.763 82.4305 438.524 80.0508 438.887 76.5835L441.531 50.6932C441.859 47.2435 441.596 44.7293 440.706 43.1623C439.782 41.5953 437.997 40.4727 435.288 39.7769L435.423 38.4204L455.515 38.1573L451.484 77.8699C451.121 81.2903 451.385 83.7636 452.245 85.3013C453.105 86.8391 454.924 88.0085 457.663 88.7861L457.499 90.435L430.397 87.6927L430.391 87.6986ZM436.835 85.5998L449.19 86.8566L447.804 85.5995C447.739 85.5177 447.669 85.4358 447.57 85.3832L446.844 84.6874C446.318 84.0618 446.084 83.2315 446.148 82.2434L446.282 81.0214L446.347 80.3957L450.443 40.2505L440.197 40.3324L442.409 42.297C442.473 42.3145 442.544 42.3788 442.643 42.5133L443.404 43.2091C443.767 43.5365 444.001 43.9867 444.065 44.5656C444.129 45.1269 444.1 46.115 443.965 47.5066L440.66 79.8227C440.496 81.5242 440.297 82.5474 440.098 82.945C439.899 83.3426 439.337 83.8513 438.448 84.4652C438.313 84.5295 438.249 84.5997 438.249 84.6289L436.835 85.5998ZM442.982 19.8622C443.181 17.8157 444.042 16.1318 445.592 14.8396C447.143 13.5358 448.962 12.992 451.08 13.2025C453.163 13.4188 454.848 14.3251 456.106 15.8921C457.364 17.4766 457.856 19.295 457.657 21.359C457.458 23.4581 456.569 25.1244 455.012 26.3815C453.491 27.6386 451.677 28.1649 449.559 27.9485C447.476 27.7322 445.791 26.861 444.533 25.3232C443.275 23.7855 442.748 21.9554 442.982 19.8563V19.8622ZM450.583 14.8396C449.126 14.7753 447.839 15.2665 446.68 16.2955C445.493 17.3187 444.831 18.5583 444.697 20.0434C444.533 21.5286 444.931 22.9026 445.885 24.1538C446.844 25.4109 448.032 26.1184 449.419 26.2529C450.314 26.3523 450.84 25.9255 450.905 24.9841C451.039 24.2415 451.203 22.7389 451.431 20.4761C451.665 18.3127 451.794 16.9095 451.794 16.2838C451.859 15.4594 451.431 14.98 450.571 14.8455L450.583 14.8396Z" fill="#CCB46B"/>
<path d="M430.391 87.6986L430.555 86.0322C433.398 85.8159 435.411 85.0558 436.605 83.7519C437.763 82.4305 438.524 80.0508 438.887 76.5835L441.531 50.6932C441.859 47.2435 441.596 44.7293 440.706 43.1623C439.782 41.5953 437.997 40.4727 435.288 39.7769L435.423 38.4204L455.515 38.1573L451.484 77.8699C451.121 81.2903 451.385 83.7636 452.245 85.3013C453.105 86.8391 454.924 88.0085 457.663 88.7861L457.499 90.435L430.397 87.6927L430.391 87.6986ZM436.835 85.5998L449.19 86.8566L447.804 85.5995C447.739 85.5177 447.669 85.4358 447.57 85.3832L446.844 84.6874C446.318 84.0618 446.084 83.2315 446.148 82.2434L446.282 81.0214L446.347 80.3957L450.443 40.2505L440.197 40.3324L442.409 42.297C442.473 42.3145 442.544 42.3788 442.643 42.5133L443.404 43.2091C443.767 43.5365 444.001 43.9867 444.065 44.5656C444.129 45.1269 444.1 46.115 443.965 47.5066L440.66 79.8227C440.496 81.5242 440.297 82.5474 440.098 82.945C439.899 83.3426 439.337 83.8513 438.448 84.4652C438.313 84.5295 438.249 84.5997 438.249 84.6289L436.835 85.5998ZM442.982 19.8622C443.181 17.8157 444.042 16.1318 445.592 14.8396C447.143 13.5358 448.962 12.992 451.08 13.2025C453.163 13.4188 454.848 14.3251 456.106 15.8921C457.364 17.4766 457.856 19.295 457.657 21.359C457.458 23.4581 456.569 25.1244 455.012 26.3815C453.491 27.6386 451.677 28.1649 449.559 27.9485C447.476 27.7322 445.791 26.861 444.533 25.3232C443.275 23.7855 442.748 21.9554 442.982 19.8563V19.8622ZM450.583 14.8396C449.126 14.7753 447.839 15.2665 446.68 16.2955C445.493 17.3187 444.831 18.5583 444.697 20.0434C444.533 21.5286 444.931 22.9026 445.885 24.1538C446.844 25.4109 448.032 26.1184 449.419 26.2529C450.314 26.3523 450.84 25.9255 450.905 24.9841C451.039 24.2415 451.203 22.7389 451.431 20.4761C451.665 18.3127 451.794 16.9095 451.794 16.2838C451.859 15.4594 451.431 14.98 450.571 14.8455L450.583 14.8396Z" stroke="#CCB46B"/>
<path d="M510.24 49.0269L510.439 63.6385L508.789 63.3578C508.327 58.5049 507.04 54.5231 504.857 51.4183C502.675 48.2961 499.866 46.4484 496.432 45.8696C494.413 45.5421 492.599 45.852 491.043 46.8109C489.457 47.7874 488.533 49.1556 488.234 50.9038C487.971 52.5234 488.27 53.9559 489.194 55.1779C490.089 56.4 492.266 58.3645 495.706 61.0892C501.323 65.5154 505.191 68.9183 507.309 71.2805C510.679 74.9114 511.966 79.1095 511.176 83.8807C510.749 86.2896 509.918 88.3711 508.666 90.1252C507.408 91.8734 505.723 93.3118 503.64 94.4344C501.592 95.557 499.211 96.2645 496.566 96.5978C493.887 96.9252 491.078 96.8434 488.106 96.3347C483.179 95.5103 477.433 93.3761 470.921 89.979L472.606 71.1518L474.092 71.3974C475.614 84.6875 480.242 91.9904 487.971 93.2943C490.715 93.7562 493.091 93.3293 495.174 91.9904C497.222 90.669 498.444 88.6693 498.907 86.0265C499.369 83.3369 498.673 80.9923 496.888 79.0101C495.829 77.8349 493.12 75.5078 488.761 72.0406C484.367 68.5909 481.424 65.948 479.903 64.1472C477.392 61.2412 476.468 57.9377 477.094 54.2366C477.79 50.2431 479.867 47.2495 483.437 45.2673C486.971 43.2852 491.201 42.7239 496.127 43.5483C500.059 44.209 504.752 46.0391 510.24 49.0152V49.0269ZM472.963 88.6927L474.022 89.2365C475.508 90.1311 477.229 90.9847 479.241 91.8267L480.529 92.3529C478.808 90.7684 477.457 89.2306 476.462 87.7279C475.473 86.2428 474.444 84.3075 473.49 81.9161L472.963 88.6869V88.6927ZM492.658 94.7209C496.391 94.8554 499.498 94.0602 501.914 92.3237C504.36 90.5871 505.846 88.1314 506.379 84.9097C506.94 81.7231 506.215 78.7178 504.266 75.8762C502.616 73.3678 499.112 70.0994 493.787 66.0533C489.422 62.6328 486.549 59.9958 485.163 58.1248C483.776 56.2421 483.279 54.2775 483.612 52.196C484.139 49.0562 486.385 46.5654 490.352 44.7177C487.21 45.1972 484.665 46.2847 482.717 47.9686C480.798 49.6526 479.61 51.7692 479.148 54.3418C478.65 57.3472 479.282 59.99 481.096 62.2703C482.454 64.0536 485.391 66.7432 489.855 70.3625C494.712 74.1455 497.754 76.8526 499.012 78.4371C500.832 80.7642 501.493 83.3895 500.996 86.313C500.235 90.9204 497.426 93.7269 492.67 94.7209H492.658Z" fill="#CCB46B"/>
<path d="M510.24 49.0269L510.439 63.6385L508.789 63.3578C508.327 58.5049 507.04 54.5231 504.857 51.4183C502.675 48.2961 499.866 46.4484 496.432 45.8696C494.413 45.5421 492.599 45.852 491.043 46.8109C489.457 47.7874 488.533 49.1556 488.234 50.9038C487.971 52.5234 488.27 53.9559 489.194 55.1779C490.089 56.4 492.266 58.3645 495.706 61.0892C501.323 65.5154 505.191 68.9183 507.309 71.2805C510.679 74.9114 511.966 79.1095 511.176 83.8807C510.749 86.2896 509.918 88.3711 508.666 90.1252C507.408 91.8734 505.723 93.3118 503.64 94.4344C501.592 95.557 499.211 96.2645 496.566 96.5978C493.887 96.9252 491.078 96.8434 488.106 96.3347C483.179 95.5103 477.433 93.3761 470.921 89.979L472.606 71.1518L474.092 71.3974C475.614 84.6875 480.242 91.9904 487.971 93.2943C490.715 93.7562 493.091 93.3293 495.174 91.9904C497.222 90.669 498.444 88.6693 498.907 86.0265C499.369 83.3369 498.673 80.9923 496.888 79.0101C495.829 77.8349 493.12 75.5078 488.761 72.0406C484.367 68.5909 481.424 65.948 479.903 64.1472C477.392 61.2412 476.468 57.9377 477.094 54.2366C477.79 50.2431 479.867 47.2495 483.437 45.2673C486.971 43.2852 491.201 42.7239 496.127 43.5483C500.059 44.209 504.752 46.0391 510.24 49.0152V49.0269ZM472.963 88.6927L474.022 89.2365C475.508 90.1311 477.229 90.9847 479.241 91.8267L480.529 92.3529C478.808 90.7684 477.457 89.2306 476.462 87.7279C475.473 86.2428 474.444 84.3075 473.49 81.9161L472.963 88.6869V88.6927ZM492.658 94.7209C496.391 94.8554 499.498 94.0602 501.914 92.3237C504.36 90.5871 505.846 88.1314 506.379 84.9097C506.94 81.7231 506.215 78.7178 504.266 75.8762C502.616 73.3678 499.112 70.0994 493.787 66.0533C489.422 62.6328 486.549 59.9958 485.163 58.1248C483.776 56.2421 483.279 54.2775 483.612 52.196C484.139 49.0562 486.385 46.5654 490.352 44.7177C487.21 45.1972 484.665 46.2847 482.717 47.9686C480.798 49.6526 479.61 51.7692 479.148 54.3418C478.65 57.3472 479.282 59.99 481.096 62.2703C482.454 64.0536 485.391 66.7432 489.855 70.3625C494.712 74.1455 497.754 76.8526 499.012 78.4371C500.832 80.7642 501.493 83.3895 500.996 86.313C500.235 90.9204 497.426 93.7269 492.67 94.7209H492.658Z" stroke="#CCB46B"/>
<path d="M520.316 101.094L520.713 99.4568C523.557 99.6381 525.64 99.1411 526.992 97.9892C528.314 96.849 529.373 94.5863 530.198 91.2009L536.213 65.8719C537.009 62.504 537.073 59.9781 536.377 58.2942C535.68 56.6278 534.066 55.2713 531.45 54.2306L531.749 52.9092L551.742 55.2889L542.485 94.1244C541.689 97.4571 541.625 99.9538 542.286 101.591C542.947 103.24 544.568 104.631 547.178 105.754L546.815 107.391L520.31 101.1L520.316 101.094ZM526.992 99.8719L539.056 102.743L537.869 101.304C537.804 101.205 537.734 101.123 537.67 101.071L537.009 100.275C536.581 99.5796 536.482 98.7376 536.681 97.767L536.944 96.5625L537.108 95.9545L546.429 56.7038L536.283 55.435L538.231 57.6803C538.267 57.6978 538.331 57.7797 538.43 57.9258L539.056 58.7035C539.384 59.0835 539.554 59.563 539.554 60.1418C539.554 60.7207 539.39 61.6796 539.056 63.0478L531.555 94.6506C531.158 96.2877 530.83 97.2934 530.567 97.6559C530.303 98.0184 529.707 98.4511 528.747 98.9423C528.583 98.989 528.513 99.0417 528.513 99.0884L526.992 99.8661V99.8719ZM541.701 35.5028C542.199 33.5031 543.252 31.9537 544.972 30.8603C546.692 29.7844 548.541 29.4921 550.589 29.9657C552.672 30.4627 554.193 31.5678 555.217 33.2985C556.276 35.035 556.539 36.9002 556.077 38.9115C555.58 40.958 554.492 42.5133 552.806 43.554C551.121 44.5948 549.237 44.8754 547.189 44.3784C545.142 43.899 543.585 42.8115 542.532 41.11C541.508 39.4261 541.21 37.5609 541.707 35.4969L541.701 35.5028ZM549.928 31.5385C548.471 31.2754 547.119 31.5853 545.832 32.4448C544.545 33.3043 543.749 34.462 543.386 35.9121C543.059 37.3504 543.252 38.7712 544.047 40.1394C544.808 41.5076 545.896 42.3671 547.254 42.6828C548.149 42.8992 548.711 42.5367 548.939 41.607C549.138 40.8995 549.501 39.4436 550.027 37.2335C550.054 37.1202 550.08 37.0091 550.105 36.9001C550.559 34.9593 550.857 33.6812 550.952 33.1055C551.086 32.2986 550.753 31.7666 549.928 31.5385Z" fill="#CCB46B"/>
<path d="M520.316 101.094L520.713 99.4568C523.557 99.6381 525.64 99.1411 526.992 97.9892C528.314 96.849 529.373 94.5863 530.198 91.2009L536.213 65.8719C537.009 62.504 537.073 59.9781 536.377 58.2942C535.68 56.6278 534.066 55.2713 531.45 54.2306L531.749 52.9092L551.742 55.2889L542.485 94.1244C541.689 97.4571 541.625 99.9538 542.286 101.591C542.947 103.24 544.568 104.631 547.178 105.754L546.815 107.391L520.31 101.1L520.316 101.094ZM526.992 99.8719L539.056 102.743L537.869 101.304C537.804 101.205 537.734 101.123 537.67 101.071L537.009 100.275C536.581 99.5796 536.482 98.7376 536.681 97.767L536.944 96.5625L537.108 95.9545L546.429 56.7038L536.283 55.435L538.231 57.6803C538.267 57.6978 538.331 57.7797 538.43 57.9258L539.056 58.7035C539.384 59.0835 539.554 59.563 539.554 60.1418C539.554 60.7207 539.39 61.6796 539.056 63.0478L531.555 94.6506C531.158 96.2877 530.83 97.2934 530.567 97.6559C530.303 98.0184 529.707 98.4511 528.747 98.9423C528.583 98.989 528.513 99.0417 528.513 99.0884L526.992 99.8661V99.8719ZM541.701 35.5028C542.199 33.5031 543.252 31.9537 544.972 30.8603C546.692 29.7844 548.541 29.4921 550.589 29.9657C552.672 30.4627 554.193 31.5678 555.217 33.2985C556.276 35.035 556.539 36.9002 556.077 38.9115C555.58 40.958 554.492 42.5133 552.806 43.554C551.121 44.5948 549.237 44.8754 547.189 44.3784C545.142 43.899 543.585 42.8115 542.532 41.11C541.508 39.4261 541.21 37.5609 541.707 35.4969L541.701 35.5028ZM549.928 31.5385C548.471 31.2754 547.119 31.5853 545.832 32.4448C544.545 33.3043 543.749 34.462 543.386 35.9121C543.059 37.3504 543.252 38.7712 544.047 40.1394C544.808 41.5076 545.896 42.3671 547.254 42.6828C548.149 42.8992 548.711 42.5367 548.939 41.607C549.138 40.8995 549.501 39.4436 550.027 37.2335C550.054 37.1202 550.08 37.0091 550.105 36.9001C550.559 34.9593 550.857 33.6812 550.952 33.1055C551.086 32.2986 550.753 31.7666 549.928 31.5385Z" stroke="#CCB46B"/>
<path d="M624.189 92.9844C623.862 94.3877 623.429 95.8436 622.902 97.3287L615.963 116.7C614.804 119.939 614.506 122.412 615.003 124.131C615.5 125.85 616.987 127.4 619.432 128.803L618.871 130.37L593.226 121.219L593.787 119.635C596.596 120.114 598.714 119.851 600.165 118.828C601.622 117.805 602.909 115.676 604.068 112.455L611.106 92.7213C612.628 88.4764 613.417 85.4418 613.453 83.6059C613.587 81.6764 613.154 79.9749 612.23 78.5015C611.335 77.0339 610.018 75.9931 608.298 75.3792C605.852 74.5022 603.207 74.4554 600.434 75.2155C597.661 75.9756 594.021 77.7238 589.528 80.466L581.032 104.228C579.873 107.45 579.546 109.923 580.008 111.624C580.47 113.326 581.956 114.875 584.437 116.296L583.876 117.863L558.23 108.713L558.792 107.128C561.601 107.608 563.748 107.362 565.205 106.351C566.662 105.362 567.949 103.228 569.137 99.9598L577.896 75.4377C579.054 72.1692 579.417 69.6726 578.92 67.9419C578.393 66.2053 576.901 64.6734 574.455 63.352L574.918 62.0657L594.484 66.6205L590.552 77.601C595.11 74.7945 599.176 73.0287 602.78 72.3154C606.349 71.5904 609.854 71.8359 613.26 73.058C617.256 74.4788 620.199 76.6889 622.147 79.6767C624.066 82.6821 624.856 86.2487 624.529 90.3767C628.033 88.2951 630.971 86.7749 633.288 85.8043C638.115 83.8047 642.971 83.676 647.798 85.3892C650.806 86.465 653.316 88.1139 655.334 90.3591C657.382 92.5868 658.64 95.1945 659.167 98.1356C659.764 101.287 659.231 105.134 657.616 109.695L650.677 129.084C649.518 132.323 649.191 134.778 649.653 136.48C650.115 138.181 651.601 139.731 654.082 141.152L653.521 142.719L627.875 133.568L628.437 131.984C631.281 132.481 633.428 132.217 634.879 131.188C636.301 130.165 637.623 128.049 638.782 124.815L645.821 105.082C647.371 100.808 648.132 97.7672 648.167 95.9839C648.301 94.0018 647.904 92.3003 647.008 90.8678C646.084 89.4119 644.797 88.3887 643.106 87.7981C640.66 86.9211 637.951 86.8919 635.008 87.6987C632.065 88.5056 628.466 90.2772 624.201 92.9669L624.189 92.9844ZM564.965 108.245L576.667 112.408L575.643 110.859C575.579 110.759 575.544 110.677 575.479 110.613L574.918 109.753C574.555 109.011 574.555 108.169 574.853 107.228L575.251 106.052L575.485 105.456L589.065 67.4624L579.119 65.1002L580.804 67.5443C580.839 67.5618 580.903 67.6437 580.968 67.7898L581.529 68.6494C581.793 69.0645 581.927 69.5556 581.857 70.1169C581.793 70.6782 581.494 71.6371 581.032 72.9586L570.091 103.538C569.529 105.14 569.102 106.099 568.803 106.427C568.505 106.772 567.844 107.122 566.82 107.514C566.685 107.549 566.586 107.578 566.586 107.613L564.965 108.239V108.245ZM599.896 120.711L611.598 124.891L610.638 123.353C610.574 123.289 610.504 123.207 610.474 123.09L609.913 122.248C609.515 121.453 609.515 120.611 609.813 119.705L610.176 118.518L610.41 117.939L618.373 95.6448C620.257 90.2597 620.784 86.1025 619.924 83.1615C619.397 81.2145 618.438 79.4955 617.016 78.0103C615.629 76.5252 613.944 75.4318 611.99 74.7419C611.756 74.66 611.592 74.5957 611.428 74.5782C611.294 74.5431 611.065 74.4788 610.703 74.3794C610.375 74.28 610.041 74.1806 609.679 74.0987C612.985 75.8645 614.898 78.1097 615.395 80.852C615.892 83.5942 615.132 87.7689 613.113 93.3703L605.015 116.027C604.454 117.612 604.027 118.588 603.728 118.933C603.465 119.261 602.833 119.629 601.809 120.009C601.71 120.056 601.645 120.091 601.61 120.073C601.61 120.073 601.575 120.073 601.511 120.108L599.89 120.717L599.896 120.711ZM634.598 133.112L646.3 137.275L645.276 135.726C645.276 135.691 645.276 135.644 645.241 135.591C645.241 135.544 645.206 135.509 645.142 135.492L644.615 134.632C644.217 133.89 644.188 133.03 644.516 132.106L644.879 130.919L645.077 130.341L653.012 108.017C654.071 105.058 654.732 102.684 654.96 100.884C655.223 99.0828 655.094 97.2994 654.632 95.5687C653.374 91.4233 650.765 88.6518 646.733 87.2134C646.435 87.0965 645.645 86.8685 644.387 86.506C647.693 88.2542 649.606 90.4994 650.104 93.2592C650.566 96.0014 649.84 100.164 647.822 105.778L639.724 128.417C639.162 130.019 638.735 130.995 638.437 131.323C638.173 131.668 637.541 132.03 636.517 132.41C636.418 132.457 636.354 132.475 636.318 132.475C636.318 132.457 636.254 132.475 636.219 132.492L634.598 133.118V133.112Z" fill="#CCB46B"/>
<path d="M693.902 157.82C687.433 159.352 681.589 158.789 676.404 156.149C672.238 154.038 669.43 151.261 668.043 147.841C666.657 144.42 666.855 140.97 668.64 137.468C671.185 132.498 675.579 129.82 681.893 129.458C688.206 129.095 696.035 131.042 705.355 135.322L706.151 133.785L706.549 133.007C708.006 130.136 709.059 127.704 709.72 125.757C710.416 123.81 710.744 122.237 710.709 121.085C710.709 119.728 710.381 118.477 709.685 117.32C708.989 116.162 708.064 115.273 706.877 114.677C705.156 113.8 703.506 113.671 701.921 114.279C700.37 114.905 698.849 116.326 697.392 118.553C695.906 120.717 694.648 122.056 693.56 122.547C692.471 123.026 691.114 122.862 689.493 122.032C688.235 121.407 687.41 120.43 687.012 119.109C686.614 117.787 686.778 116.431 687.474 115.028C688.434 113.162 689.985 111.788 692.132 110.964C694.279 110.122 696.76 109.876 699.633 110.221C702.506 110.566 705.385 111.461 708.257 112.928C711.961 114.811 714.869 117.22 716.882 120.126C718.93 123.05 719.954 126.184 719.989 129.522C720.024 131.259 719.755 133.054 719.228 134.907C718.666 136.772 717.643 139.181 716.121 142.175L708.023 158.09C706.473 161.142 705.812 163.54 706.075 165.288C706.309 167.036 707.561 168.773 709.843 170.492L709.117 171.977L691.307 162.926L693.902 157.82ZM679.602 155.826C673.992 151.355 672.609 146.353 675.445 140.789C677.264 137.176 680.301 134.814 684.531 133.72C686.416 133.223 689.622 133.042 694.215 133.141C689.323 131.721 685.257 131.124 682.051 131.341C676.533 131.785 672.701 134.13 670.547 138.357C668.997 141.427 668.827 144.467 670.12 147.49C671.378 150.53 673.789 152.939 677.323 154.74C678.147 155.166 678.906 155.534 679.602 155.826ZM695.145 155.389L704.466 137.094C700.598 135.837 697.064 135.194 693.858 135.176C690.617 135.176 687.843 135.819 685.462 137.106C683.08 138.41 681.267 140.245 680.073 142.637C678.815 145.081 678.522 147.461 679.178 149.805C679.804 152.15 681.226 153.886 683.443 155.009C686.187 156.395 690.084 156.529 695.145 155.389ZM701.821 112.192C698.913 111.531 696.269 111.566 693.957 112.256C691.646 112.952 689.99 114.221 689.066 116.068C688.703 116.764 688.604 117.407 688.703 117.969C688.838 118.547 689.201 118.974 689.727 119.255C690.254 119.518 690.716 119.553 691.149 119.372C691.547 119.191 692.109 118.664 692.77 117.805C694.227 115.957 695.543 114.665 696.737 113.94C697.895 113.215 699.61 112.636 701.827 112.192H701.821ZM694.422 161.483L702.617 165.645L701.821 163.996C701.786 163.832 701.722 163.75 701.687 163.733L701.26 162.809C700.996 161.984 701.061 161.142 701.494 160.283L702.055 159.178L702.289 158.599L711.838 139.807C714.448 134.691 715.805 130.557 715.934 127.423C715.998 123.196 714.512 119.693 711.44 116.939C712.962 119.799 712.991 123.131 711.575 126.944C710.68 129.271 709.03 132.755 706.684 137.398L694.422 161.483Z" fill="#CCB46B"/>
<path d="M693.902 157.82C687.433 159.352 681.589 158.789 676.404 156.149C672.238 154.038 669.43 151.261 668.043 147.841C666.657 144.42 666.855 140.97 668.64 137.468C671.185 132.498 675.579 129.82 681.893 129.458C688.206 129.095 696.035 131.042 705.355 135.322L706.151 133.785L706.549 133.007C708.006 130.136 709.059 127.704 709.72 125.757C710.416 123.81 710.744 122.237 710.709 121.085C710.709 119.728 710.381 118.477 709.685 117.32C708.989 116.162 708.064 115.273 706.877 114.677C705.156 113.8 703.506 113.671 701.921 114.279C700.37 114.905 698.849 116.326 697.392 118.553C695.906 120.717 694.648 122.056 693.56 122.547C692.471 123.026 691.114 122.862 689.493 122.032C688.235 121.407 687.41 120.43 687.012 119.109C686.614 117.787 686.778 116.431 687.474 115.028C688.434 113.162 689.985 111.788 692.132 110.964C694.279 110.122 696.76 109.876 699.633 110.221C702.506 110.566 705.385 111.461 708.257 112.928C711.961 114.811 714.869 117.22 716.882 120.126C718.93 123.05 719.954 126.184 719.989 129.522C720.024 131.259 719.755 133.054 719.228 134.907C718.666 136.772 717.643 139.181 716.121 142.175L708.023 158.09C706.473 161.142 705.812 163.54 706.075 165.288C706.309 167.036 707.561 168.773 709.843 170.492L709.117 171.977L691.307 162.926L693.902 157.82ZM679.602 155.826C673.992 151.355 672.609 146.353 675.445 140.789C677.264 137.176 680.301 134.814 684.531 133.72C686.416 133.223 689.622 133.042 694.215 133.141C689.323 131.721 685.257 131.124 682.051 131.341C676.533 131.785 672.701 134.13 670.547 138.357C668.997 141.427 668.827 144.467 670.12 147.49C671.378 150.53 673.789 152.939 677.323 154.74C678.147 155.166 678.906 155.534 679.602 155.826ZM695.145 155.389L704.466 137.094C700.598 135.837 697.064 135.194 693.858 135.176C690.617 135.176 687.843 135.819 685.462 137.106C683.08 138.41 681.267 140.245 680.073 142.637C678.815 145.081 678.522 147.461 679.178 149.805C679.804 152.15 681.226 153.886 683.443 155.009C686.187 156.395 690.084 156.529 695.145 155.389ZM701.821 112.192C698.913 111.531 696.269 111.566 693.957 112.256C691.646 112.952 689.99 114.221 689.066 116.068C688.703 116.764 688.604 117.407 688.703 117.969C688.838 118.547 689.201 118.974 689.727 119.255C690.254 119.518 690.716 119.553 691.149 119.372C691.547 119.191 692.109 118.664 692.77 117.805C694.227 115.957 695.543 114.665 696.737 113.94C697.895 113.215 699.61 112.636 701.827 112.192H701.821ZM694.422 161.483L702.617 165.645L701.821 163.996C701.786 163.832 701.722 163.75 701.687 163.733L701.26 162.809C700.996 161.984 701.061 161.142 701.494 160.283L702.055 159.178L702.289 158.599L711.838 139.807C714.448 134.691 715.805 130.557 715.934 127.423C715.998 123.196 714.512 119.693 711.44 116.939C712.962 119.799 712.991 123.131 711.575 126.944C710.68 129.271 709.03 132.755 706.684 137.398L694.422 161.483Z" stroke="#CCB46B"/>
</g>
<defs>
<clipPath id="clip0_737_123">
<rect width="332" height="382" fill="white" transform="translate(194 172)"/>
</clipPath>
<clipPath id="clip1_737_123">
<rect width="720" height="172" fill="white"/>
</clipPath>
</defs>
</svg>
