<svg width="329" height="80" viewBox="0 0 329 80" fill="none" xmlns="http://www.w3.org/2000/svg">
<g clip-path="url(#clip0_737_970)">
<path d="M50.2241 75.1975H48.911L19.3675 16.8455L16.167 53.1425C16.0028 55.1771 15.9208 57.0489 15.9208 58.8394C15.9208 64.0479 16.9876 68.1171 19.1213 70.8841C21.255 73.7326 24.7017 75.6858 29.5436 76.7438V78.3714H7.62939e-05V76.7438C2.62617 75.8485 4.924 74.3836 6.97563 72.5118C9.02727 70.64 10.5865 68.4426 11.6534 65.9198C12.8023 63.1527 13.6229 58.758 14.1974 52.7356L17.6441 14.0784C16.249 11.5556 14.6898 9.68373 12.9664 8.62575C11.161 7.48638 8.9452 6.9167 6.23704 6.83531V5.20764H32.4159C32.4159 5.20764 32.1697 5.77733 32.1697 5.94009C31.5132 7.56776 31.1028 8.8699 31.1028 9.76512C31.1028 11.4742 32.0056 14.1598 33.8931 17.8221L54.8197 59.0022L72.1355 18.8801C73.5306 15.6247 74.1872 13.1832 74.1872 11.5556C74.1872 9.92789 73.4486 7.73053 72.0535 5.20764H98.0682V6.83531C94.4573 7.32361 91.8312 8.3816 90.1899 10.0093C88.5486 11.6369 87.7279 13.9157 87.7279 17.0083C87.7279 17.9849 87.728 18.8801 87.8921 19.7753L88.0562 21.0774L92.5698 60.874C92.5698 61.4437 92.7339 61.8506 92.7339 62.2575C92.7339 62.6644 92.9801 63.8038 93.2263 65.6756C93.8008 69.1751 94.8676 71.698 96.4269 73.407C97.9861 75.1161 100.53 76.2555 103.895 76.8251V78.4528H69.5094V76.8251C73.2844 75.9299 76.0747 74.7092 77.8801 73.1629C79.6855 71.6166 80.5883 69.7448 80.5883 67.3847C80.5883 66.4894 80.5062 65.0245 80.1779 62.9899L74.8437 17.171L50.142 75.1975H50.2241ZM18.5468 75.7672C16.8235 73.8953 15.6746 72.349 15.018 71.2097C14.3615 70.0703 13.9512 68.4426 13.6229 66.6522C12.8023 68.7682 11.8175 70.4772 10.7506 71.7794C9.68379 73.0815 8.20661 74.3836 6.23704 75.7672H18.5468ZM49.4034 72.1049L52.3578 65.1059L27.492 15.9503C26.261 13.4274 25.6865 11.5556 25.6865 10.4162C25.6865 9.27682 26.0148 8.21883 26.5893 7.24223H14.1153C16.167 8.70713 17.6441 10.172 18.6289 11.7997C20.024 13.8343 21.1729 15.8689 22.1577 17.8221L49.4034 72.0235V72.1049ZM77.1415 75.7672H93.7187L90.9285 73.4884C89.6975 72.5118 88.8769 70.3958 88.4665 67.2219L82.4758 15.9503C82.4758 15.055 82.3937 14.404 82.3937 13.9971C82.3937 13.1832 82.5578 12.4508 82.9682 11.8811C83.2964 11.3114 84.035 10.579 85.1839 9.68374L88.3024 7.24223H75.7464L82.5578 66.4081L82.804 67.6288C82.804 68.524 82.8861 69.0937 82.8861 69.582C82.8861 70.4772 82.722 71.2097 82.3937 71.698C82.0654 72.1863 81.3269 72.8373 80.0959 73.7326L77.1415 75.7672Z" fill="#CCB46B"/>
<path d="M146.159 26.2059H158.386V78.4541H146.159V73.0014C141.153 77.6403 135.736 80.0004 129.992 80.0004C122.688 80.0004 116.697 77.3961 111.937 72.1876C107.178 66.8163 104.88 60.2242 104.88 52.2486C104.88 44.273 107.26 37.9251 111.937 32.6352C116.697 27.4267 122.606 24.8224 129.664 24.8224C135.819 24.8224 141.317 27.3453 146.159 32.3097V26.2059ZM117.272 52.1672C117.272 57.213 118.667 61.2822 121.293 64.3748C124.083 67.5487 127.53 69.1764 131.797 69.1764C136.311 69.1764 139.922 67.6301 142.712 64.5375C145.502 61.3636 146.897 57.2944 146.897 52.4114C146.897 47.5284 145.502 43.4592 142.712 40.2853C139.922 37.1927 136.311 35.6464 131.879 35.6464C127.694 35.6464 124.165 37.1927 121.375 40.3666C118.585 43.5406 117.19 47.447 117.19 52.1672H117.272Z" fill="#CCB46B"/>
<path d="M178.821 74.8736L178.493 76.0944C178.493 76.0944 178.493 76.3385 178.575 76.5013C178.657 76.664 178.739 76.664 178.821 76.664H178.985C178.985 76.664 179.068 76.664 179.15 76.5826C179.478 76.4199 179.806 75.9316 180.216 75.0364C180.627 74.1411 181.283 72.5135 182.268 70.2347C183.499 66.898 184.976 63.5613 186.7 60.3873C188.423 57.2134 190.146 54.365 191.952 51.7607V51.4351C192.198 47.4474 193.511 43.8665 196.055 40.5298C198.599 37.193 201.307 35.484 204.344 35.4026H204.672C205.903 35.4026 206.97 35.7281 207.872 36.3792C208.775 37.0303 209.186 37.8441 209.186 38.9021C209.186 39.0648 209.186 39.2276 209.186 39.3904C209.186 39.5531 209.186 39.7159 209.186 39.8787C208.939 40.367 208.611 40.9367 208.119 41.5064C207.626 42.076 206.806 42.8085 205.821 43.6223C204.18 45.0058 202.62 46.4707 200.979 48.017C199.338 49.5633 197.861 51.1096 196.301 52.6559V54.7719C196.219 57.4575 196.958 59.6549 198.435 61.2826C199.912 62.9102 201.882 63.7241 204.426 63.7241C205.164 63.7241 205.985 63.7241 206.806 63.4799C207.626 63.3171 208.775 63.073 210.17 62.5847L210.581 65.0262C210.006 65.189 209.432 65.2703 208.939 65.3517C208.447 65.3517 207.955 65.5145 207.544 65.5959H206.231C203.113 65.5959 200.405 64.7007 198.025 62.9916C195.645 61.2825 193.839 58.841 192.608 55.8299C192.444 55.9926 192.362 56.074 192.198 56.2368C192.116 56.3182 191.952 56.4809 191.952 56.6437C190.885 58.0272 189.654 59.899 188.341 62.2592C187.028 64.6193 185.14 68.2001 182.761 73.0018C182.514 73.4901 182.35 73.9784 182.104 74.4667C181.858 74.955 181.694 75.2805 181.53 75.6874C180.873 76.8268 180.134 77.722 179.232 78.2917C178.411 78.8614 176.934 79.1055 174.882 79.1055C172.01 79.1055 169.63 78.4545 167.825 77.1523C165.937 75.8502 165.034 74.2225 165.034 72.1879C165.034 71.3741 165.199 70.3975 165.445 69.2581C165.691 68.1188 166.019 66.898 166.512 65.4331L175.621 39.7159L193.265 36.2164L179.068 75.1177L178.821 74.8736Z" fill="#CCB46B"/>
<path d="M235.445 71.7803C230.439 75.524 225.433 79.2676 218.703 79.2676C212.631 79.2676 209.758 75.9309 208.856 73.5708C208.609 72.9197 208.445 71.9431 208.445 70.3968C208.445 66.6532 210.087 61.8515 212.795 54.1201C214.436 49.1557 216.324 44.1913 218.129 39.3083C219.934 38.5759 221.658 37.6806 223.381 36.5413C224.694 35.8088 226.007 34.6694 226.5 34.6694C226.746 34.7508 227.156 34.9136 227.156 35.4019C227.156 36.053 225.269 40.7732 223.956 44.1913C222.478 48.2605 221.001 52.2483 219.442 56.1547C217.883 60.2239 216.488 64.293 215.011 68.3622C215.011 68.6064 213.944 71.5362 213.944 73.5708C213.944 76.5006 216.077 77.9655 218.786 77.9655C220.591 77.9655 222.807 77.5586 224.448 76.9889C228.633 75.4426 232.326 72.8383 235.855 70.3154L235.609 71.8617L235.445 71.7803ZM222.725 20.7529C222.725 18.3114 224.694 16.3582 227.156 16.3582C229.618 16.3582 231.588 18.4741 231.588 20.7529C231.588 23.2758 229.454 25.1476 227.074 25.1476C226.664 25.1476 225.105 25.0662 223.956 23.8454C223.545 23.5199 222.725 22.3805 222.725 20.7529Z" fill="#CCB46B"/>
<path d="M271.555 26.2059H283.783V78.4541H271.555V73.0014C266.549 77.6403 261.133 80.0004 255.388 80.0004C248.085 80.0004 242.094 77.3961 237.334 72.1876C232.574 66.8163 230.276 60.2242 230.276 52.2486C230.276 44.273 232.656 37.9251 237.334 32.6352C242.094 27.4267 248.002 24.8224 255.06 24.8224C261.215 24.8224 266.713 27.3453 271.555 32.3097V26.2059ZM242.668 52.1672C242.668 57.213 244.063 61.2822 246.689 64.3748C249.48 67.5487 252.926 69.1764 257.194 69.1764C261.707 69.1764 265.318 67.6301 268.108 64.5375C270.899 61.3636 272.294 57.2944 272.294 52.4114C272.294 47.5284 270.899 43.4592 268.108 40.2853C265.318 37.1927 261.707 35.6464 257.276 35.6464C253.091 35.6464 249.562 37.1927 246.772 40.3666C243.981 43.5406 242.586 47.447 242.586 52.1672H242.668Z" fill="#44E86A"/>
<path d="M300.688 11.8006C300.688 13.4283 300.441 14.9746 300.113 16.6022C299.703 18.1485 299.128 19.6134 298.308 20.9969C297.487 22.3805 296.502 23.5198 295.271 24.5778C294.04 25.6358 292.563 26.3683 290.922 26.7752V22.0549C291.907 21.7294 292.727 21.2411 293.384 20.4273C294.04 19.6948 294.615 18.7996 295.025 17.7416C295.435 16.6836 295.764 15.707 295.928 14.649C296.092 13.591 296.174 12.6144 296.092 11.7192H291.414V0H300.688V11.8006Z" fill="#44E86A"/>
<path d="M323.174 36.0537L325.472 48.5054H323.995C322.928 44.4362 321.205 41.1809 318.907 38.9021C316.609 36.542 313.901 35.4026 310.864 35.4026C309.059 35.4026 307.582 35.9723 306.351 36.9489C305.12 38.0069 304.545 39.309 304.545 40.8553C304.545 42.3202 305.038 43.4596 305.94 44.3548C306.925 45.25 309.059 46.6336 312.424 48.424C317.922 51.3538 321.697 53.7139 323.913 55.423C327.36 58.0272 329.083 61.4454 329.083 65.5959C329.083 67.7119 328.673 69.5837 327.852 71.2928C327.031 73.0018 325.8 74.4667 324.159 75.6875C322.518 76.9082 320.63 77.8848 318.414 78.5359C316.199 79.187 313.737 79.5125 311.111 79.5125C306.761 79.5125 301.509 78.5359 295.436 76.5827L294.123 60.306H295.436C298.719 71.4555 303.725 76.9896 310.618 76.9896C312.998 76.9896 315.05 76.2572 316.609 74.8736C318.168 73.4087 318.989 71.5369 318.989 69.2582C318.989 66.9794 318.086 65.0262 316.199 63.5613C315.132 62.6661 312.424 61.1198 308.156 58.7597C303.889 56.3996 301.017 54.6091 299.375 53.307C296.831 51.191 295.518 48.5054 295.518 45.25C295.518 41.7505 296.913 38.9021 299.621 36.7048C302.33 34.5074 305.94 33.368 310.29 33.368C313.737 33.368 318.086 34.2633 323.256 35.9723L323.174 36.0537ZM296.913 75.2806L297.898 75.6061C299.293 76.1758 300.934 76.6641 302.74 77.071L303.889 77.3151C302.165 76.1758 300.77 75.1178 299.703 73.9784C298.637 72.8391 297.488 71.3741 296.257 69.4209L296.831 75.2806H296.913ZM314.721 77.5593C318.004 77.1524 320.548 76.013 322.354 74.1412C324.159 72.2694 325.144 69.9906 325.144 67.1422C325.144 64.2938 324.077 61.8523 322.025 59.7363C320.22 57.8645 316.773 55.5857 311.603 52.9001C307.336 50.6213 304.463 48.7495 303.068 47.366C301.673 45.9825 300.852 44.3548 300.852 42.5644C300.852 39.7973 302.412 37.3558 305.53 35.2399C302.904 36.1351 300.852 37.3558 299.457 39.0649C298.062 40.7739 297.324 42.8085 297.324 45.0059C297.324 47.6915 298.226 49.8075 300.114 51.5166C301.591 52.8187 304.463 54.6905 308.813 57.132C313.573 59.6549 316.527 61.5267 317.84 62.7475C319.727 64.4565 320.712 66.5725 320.712 69.1768C320.712 73.246 318.743 76.013 314.721 77.5593Z" fill="#CCB46B"/>
</g>
<defs>
<clipPath id="clip0_737_970">
<rect width="329" height="80" fill="white"/>
</clipPath>
</defs>
</svg>
