<svg width="319" height="87" viewBox="0 0 319 87" fill="none" xmlns="http://www.w3.org/2000/svg">
<g clip-path="url(#clip0_737_990)">
<path d="M24.6476 47.1816V67.6768C24.6476 71.1066 24.8974 73.6162 25.3138 75.2056C25.7301 76.7951 26.646 78.2172 27.9783 79.472C30.3931 81.647 33.8071 82.9854 38.3036 83.571V85.3278H0.000260264V83.571C4.16366 82.9018 7.16132 81.2287 9.07648 78.7191C10.5753 76.8787 11.2415 73.1979 11.2415 67.5931V23.8422C11.2415 20.3287 11.0749 17.7354 10.6586 16.146C10.2422 14.5566 9.57609 13.2181 8.4936 12.047C6.66171 9.95563 3.83059 8.61717 -0.0830078 7.86429V6.0239C0.499869 6.0239 0.999477 6.0239 1.33255 6.0239L6.4119 6.27486C8.4936 6.35852 10.8251 6.44217 13.4897 6.44217C17.7364 6.44217 21.65 6.27486 25.064 5.94025L33.141 5.27102C35.7223 5.02006 38.3036 4.9364 40.6351 4.9364C49.628 4.9364 56.6226 6.77679 61.7852 10.4576C66.8645 14.1383 69.4458 19.1576 69.4458 25.5989C69.4458 29.3633 68.4466 32.8768 66.5315 36.1393C64.6163 39.4018 61.9517 41.8277 58.7043 43.5845C54.0412 45.9268 47.0467 47.0979 37.6374 47.0979H24.4811L24.6476 47.1816ZM8.07726 82.3999H24.9807L22.7324 80.7268C21.4002 79.7229 20.5675 78.9701 20.2344 78.3845C19.9013 77.7989 19.6515 76.9624 19.6515 75.7912C19.6515 75.2056 19.6515 74.7874 19.6515 74.5364C19.6515 74.2854 19.6515 74.1181 19.6515 73.8672V17.6518C19.6515 17.6518 19.6515 17.1499 19.6515 16.9826C19.6515 16.7316 19.6515 16.3133 19.6515 15.7277C19.6515 14.6402 19.8181 13.8037 20.1511 13.2181C20.4842 12.6326 21.2336 11.8797 22.3161 11.0431L22.7324 10.7922L25.9799 8.28256H23.8982C20.4009 8.61717 17.2368 8.78448 14.4056 8.78448C12.657 8.78448 10.3255 8.78448 7.32785 8.61717L10.4088 10.7922C11.6578 11.6287 12.4905 12.3816 12.9068 13.0508C13.3232 13.7201 13.4897 14.5566 13.4897 15.7277C13.4897 16.397 13.4897 17.0662 13.4897 17.6518V73.9508C13.4897 74.5364 13.4897 75.2056 13.4897 75.8749C13.4897 77.046 13.3232 77.9662 12.9901 78.5518C12.657 79.1374 11.8243 79.8903 10.4088 80.8104L8.16053 82.4835L8.07726 82.3999ZM24.6476 44.672H34.1402C40.302 44.672 44.965 43.6681 48.1292 41.7441C50.544 40.2383 52.3759 38.147 53.7082 35.3864C55.0405 32.6258 55.7066 29.447 55.7066 25.9335C55.7066 20.3287 54.0412 15.8951 50.7105 12.5489C47.3798 9.20275 42.8833 7.52967 37.3044 7.52967C34.5565 7.52967 32.3083 7.94794 30.3931 8.78448C28.4779 9.62102 27.1457 10.8758 26.2297 12.4652C25.1472 14.3056 24.6476 17.3172 24.6476 21.3326V44.672ZM47.2133 44.5047C52.709 42.9989 56.8724 40.6566 59.7035 37.3941C62.6179 34.1316 64.0334 30.1162 64.0334 25.4316C64.0334 22.5037 63.3673 19.8268 62.035 17.4008C60.7027 14.9749 58.7875 12.9672 56.2895 11.4614C53.7914 9.87198 50.8771 8.78448 47.3798 8.11525C54.3743 11.796 57.8716 17.6518 57.8716 25.7662C57.8716 30.1999 56.9556 33.9643 55.207 37.0595C53.4584 40.1547 50.7938 42.6643 47.2133 44.5883V44.5047Z" fill="#CCB46B"/>
<path d="M113.662 28.8609H126.735V85.4109H113.662V79.4715C108.332 84.4907 102.504 87.0003 96.3419 87.0003C88.5979 87.0003 82.103 84.1561 77.0237 78.5513C71.9443 72.7791 69.4463 65.5849 69.4463 56.9686C69.4463 48.3522 71.9443 41.409 77.0237 35.8041C82.103 30.1157 88.4314 27.3551 96.0088 27.3551C102.587 27.3551 108.416 30.032 113.662 35.4695V28.9445V28.8609ZM82.7692 56.9686C82.7692 62.4061 84.1847 66.8397 87.0991 70.1859C90.0968 73.6157 93.8438 75.3724 98.3403 75.3724C103.17 75.3724 107.083 73.6993 109.998 70.3532C112.995 66.9234 114.411 62.5734 114.411 57.2195C114.411 51.8657 112.912 47.5157 109.998 44.0859C107 40.7397 103.17 39.0666 98.4236 39.0666C93.9271 39.0666 90.18 40.7397 87.1824 44.1695C84.1847 47.5993 82.7692 51.8657 82.7692 56.9686Z" fill="#CCB46B"/>
<path d="M150.548 76.1249C150.215 77.1288 149.965 77.9653 149.799 78.4672C149.632 79.0528 149.549 79.4711 149.549 79.8894C149.549 81.0605 149.882 82.0643 150.631 82.8172C151.381 83.5701 152.38 83.9884 153.629 83.9884C156.127 83.9884 158.542 82.8172 160.873 80.5586C163.205 78.2999 165.203 75.7903 166.952 73.0297C167.868 71.4403 168.784 69.9345 169.533 68.5124C170.282 67.0903 170.949 65.8355 171.448 64.8317C170.116 62.573 169.033 60.4817 168.284 58.7249C167.535 56.9682 167.035 55.2115 166.702 53.5384C166.535 52.7855 166.452 52.0326 166.369 51.2797C166.286 50.5269 166.286 49.6903 166.286 48.9374C166.286 45.2567 167.118 42.4124 168.867 40.2374C170.532 38.0624 172.864 37.0586 175.778 37.0586C178.693 37.0586 181.191 38.2297 183.022 40.4047C184.854 42.6634 185.77 45.5913 185.77 49.272C185.77 52.1163 185.271 55.0442 184.272 58.1394C183.272 61.1509 181.607 64.6643 179.275 68.5124C180.608 69.5163 181.857 70.3528 183.106 71.022C184.272 71.6913 185.437 72.1095 186.52 72.3605C187.019 72.5278 187.436 72.6115 187.935 72.6951C188.435 72.6951 188.851 72.6951 189.351 72.6951H190.267C190.267 72.6951 190.933 72.6951 191.183 72.6115C191.599 72.6115 192.015 72.4442 192.432 72.2769C192.848 72.1932 193.348 71.9422 193.931 71.7749L192.182 75.7903C191.016 75.7903 189.934 75.7067 188.935 75.4557C187.935 75.2884 187.019 74.9538 186.02 74.5355C184.854 74.1172 183.605 73.6153 182.44 72.8624C181.191 72.1095 179.775 71.273 178.193 70.2692C174.529 74.0336 171.115 77.1288 167.868 79.5547C164.62 81.897 161.373 83.6538 158.125 84.8249C156.793 85.2432 155.378 85.4942 154.045 85.7451C152.63 85.9124 151.297 86.0797 149.799 86.0797C145.385 86.0797 141.722 84.9922 138.89 82.9009C135.976 80.7259 134.56 78.049 134.56 74.7028C134.56 74.0336 134.56 73.3643 134.727 72.5278C134.81 71.6913 135.06 70.8547 135.227 69.9345C135.227 69.5163 135.393 69.1817 135.56 68.7634C135.643 68.4288 135.81 68.0942 135.893 67.7595L156.127 9.62012L174.862 6.19031L150.631 76.2086L150.548 76.1249ZM172.447 62.0711C173.447 59.3942 174.279 56.8009 174.779 54.2913C175.279 51.7817 175.528 49.3557 175.528 47.097C175.528 44.5874 175.279 42.6634 174.779 41.4922C174.279 40.3211 173.53 39.7355 172.531 39.7355C171.532 39.7355 170.699 40.572 170.033 42.1615C169.367 43.7509 169.117 45.9259 169.117 48.6865C169.117 50.1922 169.2 51.698 169.45 53.2038C169.7 54.7095 170.033 56.2153 170.532 57.7211C170.782 58.474 171.032 59.2269 171.365 59.9797C171.698 60.649 172.031 61.4855 172.447 62.2384V62.0711Z" fill="#CCB46B"/>
<path d="M201.343 70.1857L199.178 76.627C198.346 78.802 198.012 79.9732 198.012 81.0607C198.012 81.5626 198.096 82.4828 198.762 83.403C199.595 84.4905 201.01 85.327 203.591 85.327C204.674 85.327 206.589 85.076 208.921 84.4068C212.085 83.5703 215.582 82.1482 221.577 78.7184V80.2241C220.245 80.977 218.996 81.8136 217.58 82.3991C213.667 84.4068 208.338 86.5818 203.758 86.5818C203.009 86.5818 200.677 86.4982 198.429 85.4943C196.181 84.4905 192.517 82.1482 192.517 76.1251C192.517 72.7789 193.349 70.5203 195.348 64.6645L216.748 3.93182C218.496 3.17893 220.412 2.5097 222.077 1.58951C223.243 1.00393 224.825 0.0837402 225.075 0.0837402C225.158 0.167394 225.324 0.167394 225.324 0.418356C225.324 0.502009 225.241 0.669317 225.241 0.920279L201.426 70.2693L201.343 70.1857Z" fill="#CCB46B"/>
<path d="M215.663 56.7174C215.663 48.5193 218.578 41.576 224.407 35.8876C230.235 30.1991 237.313 27.2712 245.64 27.2712C253.967 27.2712 261.128 30.1155 267.04 35.8876C272.785 41.6597 275.7 48.7703 275.7 57.1357C275.7 65.501 272.785 72.6953 266.957 78.4674C261.128 84.1559 253.883 87.0001 245.39 87.0001C236.897 87.0001 229.902 84.0722 224.157 78.3001C218.495 72.6116 215.58 65.3337 215.58 56.7174H215.663ZM228.986 56.9684C228.986 62.6568 230.485 67.0905 233.483 70.353C236.564 73.6991 240.644 75.3722 245.64 75.3722C250.636 75.3722 254.799 73.6991 257.797 70.4366C260.795 67.1741 262.377 62.7405 262.377 57.2193C262.377 51.6982 260.878 47.3482 257.797 44.002C254.716 40.6559 250.636 38.9828 245.64 38.9828C240.644 38.9828 236.647 40.6559 233.566 44.002C230.485 47.3482 228.903 51.6145 228.903 56.8847L228.986 56.9684Z" fill="#FF6600"/>
<path d="M286.358 13.2178C286.358 14.9746 286.108 16.6476 285.692 18.4044C285.275 20.0774 284.609 21.6669 283.777 23.1726C282.944 24.6784 281.861 25.9332 280.529 27.0207C279.197 28.1082 277.698 28.9447 275.866 29.363V24.2601C276.865 23.9255 277.781 23.3399 278.447 22.5034C279.197 21.6669 279.78 20.663 280.196 19.5755C280.612 18.488 281.029 17.3169 281.195 16.1457C281.362 14.9746 281.445 13.9707 281.362 12.9669H276.366V0.502441H286.275V13.2178H286.358Z" fill="#FF6600"/>
<path d="M312.756 39.4855L315.171 52.9538H313.588C312.423 48.5202 310.591 45.0903 308.093 42.4971C305.595 39.9875 302.764 38.7327 299.516 38.7327C297.601 38.7327 296.019 39.3182 294.687 40.4057C293.354 41.4932 292.771 42.9153 292.771 44.5884C292.771 46.0942 293.271 47.4327 294.27 48.3528C295.269 49.273 297.601 50.7788 301.182 52.7865C307.01 55.9653 311.09 58.5586 313.422 60.399C317.086 63.2432 318.918 66.924 318.918 71.4413C318.918 73.7 318.501 75.7913 317.585 77.6317C316.669 79.4721 315.42 81.0615 313.672 82.4C311.923 83.7384 309.841 84.8259 307.51 85.4952C305.095 86.248 302.514 86.5827 299.683 86.5827C295.02 86.5827 289.441 85.4952 282.946 83.4038L281.53 65.7528H282.946C286.443 77.799 291.772 83.8221 299.1 83.8221C301.681 83.8221 303.846 83.0692 305.511 81.4798C307.177 79.8903 308.01 77.8827 308.01 75.373C308.01 72.8634 307.01 70.7721 305.095 69.1827C303.929 68.2625 301.098 66.5057 296.519 63.9961C291.939 61.4865 288.858 59.4788 287.193 58.0567C284.445 55.798 283.112 52.8702 283.112 49.3567C283.112 45.5923 284.611 42.4971 287.526 40.0711C290.44 37.7288 294.27 36.474 298.933 36.474C302.597 36.474 307.26 37.3942 312.756 39.3182V39.4855ZM284.694 81.898L285.777 82.2327C287.276 82.8182 289.024 83.3202 290.94 83.8221L292.189 84.073C290.357 82.9019 288.858 81.6471 287.775 80.4759C286.61 79.2211 285.444 77.6317 284.112 75.5403L284.694 81.898ZM303.68 84.4077C307.177 83.9057 309.841 82.7346 311.84 80.7269C313.838 78.7192 314.754 76.2096 314.754 73.198C314.754 70.1865 313.672 67.5096 311.424 65.1673C309.508 63.0759 305.761 60.65 300.266 57.7221C295.686 55.2125 292.688 53.2884 291.106 51.699C289.524 50.1932 288.775 48.4365 288.775 46.5125C288.775 43.5009 290.44 40.9077 293.771 38.5653C290.94 39.4855 288.775 40.9077 287.276 42.748C285.777 44.5884 285.028 46.7634 285.028 49.1894C285.028 52.0336 286.027 54.3759 288.025 56.2163C289.524 57.6384 292.688 59.6461 297.351 62.323C302.431 65.0836 305.595 67.0913 307.01 68.3461C309.092 70.1865 310.091 72.5288 310.091 75.2894C310.091 79.6394 308.01 82.6509 303.763 84.324L303.68 84.4077Z" fill="#CCB46B"/>
</g>
<defs>
<clipPath id="clip0_737_990">
<rect width="319" height="87" fill="white"/>
</clipPath>
</defs>
</svg>
